<svg width="351" height="351" viewBox="0 0 351 351" fill="none" xmlns="http://www.w3.org/2000/svg">
<circle cx="175.777" cy="175.577" r="148.737" fill="#FBCE51"/>
<g style="mix-blend-mode:overlay">
<path d="M240.022 303.156L239.845 302.787L240.52 302.325L238.636 298.561L238.486 299.806L237.627 303.524L237.71 303.73L238.413 303.505L238.59 303.874L236.517 304.925L236.341 304.556L236.907 304.157L234.587 299.45L233.927 299.686L233.75 299.317L235.866 298.277L236.042 298.646L235.433 299.034L237.348 302.852L237.475 301.693L238.357 297.889L238.2 297.617L237.443 297.874L237.266 297.505L239.381 296.465L239.558 296.834L238.949 297.221L241.268 301.929L241.917 301.735L242.094 302.104L240.022 303.156Z" fill="#313131"/>
<path d="M234.894 305.5C234.665 305.669 234.502 305.763 234.339 305.857C234.176 305.951 234.013 306.045 233.862 306.096C233.233 306.387 232.693 306.518 232.253 306.446C231.813 306.374 231.505 306.153 231.308 305.688C231.143 305.276 231.107 304.899 231.253 304.525C231.399 304.151 231.662 303.854 231.999 303.623C231.534 303.82 231.114 303.845 230.728 303.742C230.354 303.595 230.1 303.344 229.923 302.975C229.664 302.401 229.65 301.938 229.862 301.49C230.074 301.041 230.543 300.662 231.281 300.309C231.595 300.163 231.898 300.061 232.135 300.033C232.384 299.962 232.621 299.933 232.761 299.925C232.901 299.916 232.998 299.897 233.041 299.908L233.49 301.314L233.122 301.491L232.449 300.576C232.137 300.538 231.792 300.629 231.326 300.826C230.968 300.96 230.771 301.182 230.691 301.482C230.61 301.782 230.659 302.116 230.824 302.528C230.969 302.842 231.18 303.082 231.469 303.205C231.757 303.329 232.134 303.292 232.6 303.095L233.12 302.867L233.328 303.29L232.862 303.487C232.656 303.57 232.482 303.707 232.296 303.886C232.153 304.077 232.053 304.28 231.995 304.494C231.981 304.72 231.998 305 232.112 305.26C232.245 305.617 232.468 305.815 232.725 305.883C232.982 305.952 233.273 305.893 233.631 305.759C233.848 305.633 234.054 305.551 234.185 305.402C234.317 305.254 234.394 305.137 234.417 305.051L234.258 304.274L234.735 304.035L235.34 305.207C235.285 305.238 235.122 305.332 234.894 305.5Z" fill="#313131"/>
<path d="M228.033 307.977L228.713 307.838L228.878 308.25L227.806 308.651C227.643 308.745 227.395 308.816 227.135 308.93C226.875 309.044 226.712 309.138 226.603 309.201C225.889 309.469 225.317 309.545 224.932 309.442C224.546 309.338 224.249 309.075 224.096 308.621C223.962 308.264 223.925 307.887 224.06 307.555C224.152 307.213 224.415 306.916 224.741 306.728C224.232 306.913 223.801 306.981 223.427 306.835C223.053 306.689 222.756 306.426 222.602 305.971C222.374 305.451 222.415 304.957 222.681 304.477C222.947 303.998 223.47 303.587 224.336 303.268C224.542 303.186 224.694 303.134 224.888 303.095C225.288 302.972 225.548 302.858 225.645 302.838L226.674 302.425L226.796 302.826L226.156 303.159L228.033 307.977ZM224.47 303.625C223.95 303.853 223.613 304.084 223.435 304.404C223.258 304.724 223.306 305.058 223.428 305.458C223.593 305.87 223.805 306.11 224.093 306.233C224.381 306.356 224.758 306.319 225.224 306.123C225.744 305.895 226.09 305.804 226.253 305.71L225.367 303.361C225.185 303.358 224.925 303.472 224.47 303.625ZM225.941 306.361L225.529 306.526C225.172 306.66 224.932 306.871 224.809 307.159C224.686 307.448 224.691 307.77 224.868 308.139C225.001 308.496 225.213 308.736 225.458 308.848C225.704 308.96 226.081 308.923 226.546 308.727C226.752 308.644 226.915 308.55 227.121 308.467L227.284 308.373L226.45 306.176C226.341 306.238 226.189 306.29 225.941 306.361Z" fill="#313131"/>
<path d="M221.345 311.006L220.479 311.325L216.689 306.453L216.16 306.541L216.038 306.14L218.158 305.423L218.281 305.823L217.652 306.114L218.419 307.192L220.745 306.392L220.724 305.101L220.001 305.228L219.879 304.828L221.793 304.194L221.916 304.594L221.438 304.833L221.345 311.006ZM220.45 309.893L220.88 310.514L220.818 309.717L220.747 306.897L218.724 307.595L220.45 309.893Z" fill="#313131"/>
<path d="M214.757 306.807C215.271 306.945 215.665 307.188 216.013 307.603C216.361 308.018 216.643 308.506 216.794 309.143C216.956 309.738 216.989 310.298 216.883 310.866C216.777 311.434 216.522 311.871 216.15 312.231C215.778 312.59 215.332 312.884 214.781 313.057C214.381 313.18 213.852 313.268 213.25 313.29L212.97 313.307L212.629 311.838L213.18 311.664L213.702 312.63C213.787 312.653 213.959 312.699 214.141 312.702C214.324 312.705 214.573 312.634 214.864 312.575C215.21 312.484 215.493 312.284 215.702 312.019C215.911 311.753 216.057 311.379 216.075 310.971C216.092 310.562 216.047 310.045 215.905 309.548C215.763 309.051 215.566 308.585 215.292 308.236C215.018 307.887 214.733 307.581 214.402 307.447C214.071 307.312 213.674 307.252 213.274 307.374C212.982 307.434 212.765 307.559 212.656 307.622C212.548 307.684 212.416 307.833 212.339 307.95L212.238 308.841L211.709 308.929L211.568 307.743C211.665 307.723 211.828 307.629 212.045 307.504C212.22 307.367 212.383 307.273 212.588 307.19C212.751 307.096 213 307.025 213.249 306.954C213.726 306.715 214.243 306.67 214.757 306.807Z" fill="#313131"/>
<path d="M208.408 313.37C208.239 313.829 207.984 314.266 207.678 314.551C207.318 314.868 206.937 315.087 206.506 315.155C205.966 315.286 205.472 315.246 205.055 315.088C204.638 314.93 204.256 314.644 203.951 314.241C203.645 313.838 203.406 313.361 203.298 312.735C203.159 312.055 203.137 311.452 203.232 310.927C203.338 310.359 203.593 309.922 203.922 309.551C204.251 309.18 204.674 308.972 205.171 308.83C205.711 308.699 206.217 308.697 206.676 308.866C207.136 309.035 207.476 309.309 207.792 309.67C208.097 310.073 208.337 310.55 208.445 311.176L209.762 310.886L209.21 308.489L208.499 308.574L208.42 308.185L210.677 307.642L210.756 308.031L210.096 308.267L211.301 313.365L211.958 313.311L212.038 313.7L209.835 314.211L209.755 313.823L210.416 313.586L209.904 311.383L208.575 311.716C208.586 312.361 208.534 312.898 208.408 313.37ZM207.476 313.763C207.668 313.217 207.669 312.529 207.459 311.6C207.257 310.812 206.966 310.183 206.564 309.8C206.161 309.416 205.702 309.247 205.119 309.367C204.579 309.497 204.261 309.825 204.081 310.328C203.9 310.831 203.931 311.573 204.141 312.502C204.343 313.29 204.591 313.908 204.993 314.291C205.384 314.717 205.855 314.843 206.352 314.701C206.924 314.625 207.284 314.308 207.476 313.763Z" fill="#313131"/>
<path d="M198.819 313.004C198.565 312.752 198.194 312.423 197.803 311.997C197.518 311.691 197.349 311.463 197.201 311.331C197.053 311.199 196.936 311.122 196.85 311.099L196.539 311.062L196.459 310.673L197.473 310.486C197.613 310.477 197.773 310.566 197.953 310.752C198.133 310.938 198.418 311.244 198.723 311.647C199.102 312.116 199.388 312.422 199.642 312.674C199.853 312.914 200.055 313.014 200.25 312.974L200.778 312.886L200.355 310.523L199.613 310.554L199.533 310.165L201.799 309.762L201.867 310.194L201.218 310.387L202.132 315.544L202.82 315.545L202.888 315.977L200.677 316.348L200.632 315.831L201.292 315.595L200.881 313.189L200.158 313.317L198.886 316.006L199.586 315.964L199.654 316.396L197.626 316.77L197.558 316.339L198.206 316.145L199.587 313.393C199.361 313.379 199.084 313.213 198.819 313.004Z" fill="#313131"/>
<path d="M195.054 311.123C195.502 311.335 195.83 311.652 196.07 312.129C196.321 312.564 196.494 313.115 196.602 313.741C196.71 314.367 196.646 314.947 196.454 315.492C196.274 315.995 195.976 316.42 195.616 316.736C195.213 317.042 194.79 317.25 194.218 317.326C193.355 317.462 192.627 317.267 192.119 316.764C191.611 316.26 191.247 315.566 191.145 314.574C191.049 313.906 191.112 313.326 191.293 312.824C191.485 312.278 191.771 311.896 192.143 311.536C192.546 311.231 193.012 311.035 193.54 310.947C194.112 310.87 194.606 310.911 195.054 311.123ZM195.402 315.991C195.637 315.457 195.724 314.791 195.611 313.843C195.517 312.991 195.27 312.374 194.89 311.905C194.511 311.436 194.051 311.267 193.523 311.355C192.994 311.443 192.602 311.705 192.368 312.239C192.133 312.773 192.035 313.481 192.159 314.387C192.253 315.238 192.5 315.856 192.891 316.282C193.239 316.696 193.687 316.908 194.259 316.832C194.764 316.83 195.167 316.524 195.402 315.991Z" fill="#313131"/>
<path d="M189.927 317.232L190.604 317.276L190.63 317.696L189.498 317.806C189.315 317.803 189.067 317.874 188.787 317.891C188.495 317.95 188.313 317.947 188.215 317.967C187.461 318.04 186.881 317.977 186.53 317.745C186.179 317.513 185.991 317.187 185.935 316.713C185.898 316.336 186.001 315.951 186.167 315.674C186.333 315.397 186.671 315.166 187.071 315.044C186.554 315.089 186.114 315.017 185.763 314.785C185.412 314.553 185.235 314.184 185.21 313.764C185.176 313.205 185.302 312.733 185.686 312.331C186.069 311.929 186.686 311.681 187.623 311.611C187.818 311.571 188 311.574 188.226 311.589C188.646 311.563 188.926 311.547 189.012 311.57L190.143 311.459L190.168 311.879L189.488 312.019L189.927 317.232ZM187.68 312.085C187.12 312.119 186.708 312.284 186.499 312.549C186.248 312.803 186.156 313.146 186.224 313.577C186.249 313.997 186.395 314.311 186.629 314.466C186.863 314.621 187.248 314.724 187.722 314.667C188.282 314.634 188.659 314.597 188.811 314.546L188.605 312.058C188.434 312.012 188.154 312.028 187.68 312.085ZM188.382 315.119L187.907 315.176C187.53 315.213 187.216 315.358 187.061 315.592C186.907 315.826 186.815 316.169 186.852 316.546C186.888 316.923 186.991 317.226 187.225 317.38C187.459 317.535 187.802 317.627 188.276 317.57C188.47 317.53 188.696 317.545 188.902 317.462L189.096 317.423L188.899 315.074C188.759 315.083 188.619 315.091 188.382 315.119Z" fill="#313131"/>
<path d="M176.698 318.462L176.673 318.042L177.396 317.914L177.236 312.684L176.431 312.606L176.406 312.186L178.762 312.129L178.788 312.549L178.076 312.633L178.224 317.907L180.904 317.844L180.756 312.571L179.993 312.504L179.968 312.084L182.324 312.027L182.35 312.447L181.681 312.543L181.841 317.774L182.549 317.872L182.574 318.292L176.698 318.462Z" fill="#313131"/>
<path d="M174.711 312.512C175.093 312.798 175.41 313.159 175.595 313.667C175.792 314.133 175.868 314.705 175.879 315.35C175.846 315.984 175.74 316.553 175.474 317.032C175.208 317.512 174.879 317.883 174.444 318.134C174.01 318.384 173.513 318.527 173.007 318.529C172.136 318.525 171.485 318.213 171.031 317.678C170.589 317.101 170.376 316.355 170.371 315.344C170.361 314.698 170.521 314.098 170.788 313.619C171.054 313.139 171.394 312.725 171.829 312.475C172.263 312.224 172.76 312.082 173.309 312.091C173.857 312.1 174.328 312.226 174.711 312.512ZM174.371 317.379C174.68 316.911 174.864 316.226 174.879 315.312C174.871 314.483 174.732 313.803 174.45 313.315C174.168 312.826 173.731 312.571 173.183 312.562C172.634 312.553 172.2 312.804 171.891 313.272C171.582 313.74 171.386 314.468 171.371 315.382C171.367 316.253 171.475 316.879 171.8 317.379C172.082 317.868 172.519 318.123 173.067 318.132C173.596 318.044 174.019 317.836 174.371 317.379Z" fill="#313131"/>
<path d="M167.722 314.266C167.885 313.484 168.077 312.939 168.364 312.556C168.507 312.365 168.638 312.217 168.801 312.122C168.964 312.028 169.158 311.989 169.341 311.992C169.61 312.018 169.792 312.021 169.921 312.055L169.92 312.744C169.792 312.709 169.566 312.695 169.298 312.669C169.212 312.646 169.115 312.666 169.006 312.728C168.897 312.791 168.832 312.865 168.766 312.939C168.271 313.587 168.001 314.938 167.87 316.969L167.826 317.646L168.791 317.813L168.774 318.221L163.895 317.924L163.913 317.515L164.71 317.453L165.056 312.221L164.219 312.088L164.237 311.68L166.805 311.863L166.787 312.271L165.904 312.31L165.558 317.543L167.278 317.637L167.344 316.874C167.468 315.897 167.569 315.006 167.722 314.266Z" fill="#313131"/>
<path d="M162.368 317.285L163.053 317.469L162.992 317.866L158.708 317.406L158.741 316.084L159.235 316.124L159.383 316.944L161.465 317.227L161.731 314.865L160.345 314.723L160.162 315.409L159.71 315.379L159.904 313.457L160.355 313.486L160.386 314.229L161.76 314.414L162.017 311.912L159.632 311.732L159.088 312.734L158.597 312.51L158.987 311.054L163.626 311.562L163.565 311.959L162.877 311.958L162.368 317.285Z" fill="#313131"/>
<path d="M155.411 316.523L156.839 316.676L157.383 314.985L157.909 315.08L157.452 317.299L152.249 316.502L152.48 314.268L153.005 314.363L153.029 316.16L154.477 316.41L155.243 311.152L154.075 310.885L154.135 310.488L157.311 310.972L157.251 311.369L156.165 311.308L155.411 316.523Z" fill="#313131"/>
<path d="M149.403 312.388L149.8 312.448C149.952 312.397 150.137 312.217 150.292 311.983C150.446 311.749 150.71 311.452 150.941 311.101C151.173 310.75 151.382 310.485 151.525 310.294C151.668 310.102 151.777 310.04 151.862 310.063L152.999 310.275L152.939 310.672L152.604 310.72C152.507 310.74 152.41 310.76 152.278 310.909C152.158 311.014 151.961 311.237 151.752 311.502C151.478 311.842 151.269 312.107 151.083 312.287C150.885 312.509 150.723 312.604 150.517 312.686C150.879 312.875 151.133 313.127 151.279 313.441C151.424 313.755 151.461 314.133 151.389 314.572C151.259 315.226 150.962 315.652 150.55 315.817C150.096 315.971 149.536 316.004 148.796 315.852C148.625 315.806 148.454 315.76 148.197 315.691C147.94 315.622 147.725 315.565 147.597 315.531L146.417 315.306L146.478 314.909L147.198 314.964L148.209 309.818L147.45 309.569L147.51 309.172L149.955 309.643L149.894 310.04L149.089 309.962L148.686 312.15L149.403 312.388ZM148.257 315.294C148.514 315.363 148.728 315.42 148.899 315.466C149.339 315.538 149.662 315.533 149.934 315.376C150.205 315.219 150.371 314.943 150.455 314.46C150.527 314.02 150.49 313.643 150.29 313.36C150.091 313.077 149.814 312.911 149.385 312.796C148.946 312.724 148.646 312.644 148.506 312.652L148.011 315.183L148.257 315.294Z" fill="#313131"/>
<path d="M143.488 314.246L144.924 314.539L145.597 312.883L146.154 313.032L145.483 315.194L140.394 313.968L140.808 311.738L141.322 311.875L141.163 313.669L142.577 314.048L143.783 308.862L142.638 308.509L142.741 308.124L145.891 308.876L145.787 309.261L144.682 309.103L143.488 314.246Z" fill="#313131"/>
<path d="M138.077 307.195C138.437 307.567 138.633 308.033 138.721 308.562C138.809 309.09 138.746 309.67 138.573 310.312C138.413 310.912 138.092 311.423 137.72 311.782C137.337 312.185 136.86 312.424 136.363 312.566C135.823 312.697 135.328 312.657 134.772 312.507C134.343 312.393 133.895 312.181 133.33 311.891L133.084 311.78L133.603 310.358L134.16 310.507L134.056 311.581C134.119 311.69 134.236 311.767 134.395 311.856C134.555 311.944 134.801 312.056 135.058 312.125C135.4 312.217 135.723 312.211 136.069 312.12C136.372 312.018 136.709 311.787 136.941 311.436C137.216 311.096 137.428 310.648 137.565 310.134C137.703 309.62 137.786 309.137 137.773 308.675C137.759 308.212 137.637 307.812 137.448 307.486C137.26 307.16 136.952 306.94 136.524 306.825C136.224 306.745 136.01 306.687 135.827 306.684C135.644 306.681 135.493 306.732 135.384 306.795L134.835 307.474L134.344 307.251L134.868 306.152C134.996 306.186 135.179 306.189 135.405 306.204C135.63 306.218 135.813 306.221 135.996 306.225C136.179 306.228 136.436 306.296 136.693 306.365C137.25 306.515 137.729 306.781 138.077 307.195Z" fill="#313131"/>
<path d="M129.766 310.799L129.912 310.425L130.737 310.6L132.127 306.611L131.147 307.359L127.896 309.38L127.839 309.594L128.533 309.918L128.387 310.292L126.205 309.524L126.351 309.15L127.005 309.279L128.702 304.316L128.051 304.004L128.197 303.63L130.422 304.41L130.276 304.784L129.536 304.632L128.134 308.663L129.061 307.947L132.408 305.906L132.488 305.606L131.752 305.271L131.898 304.897L134.122 305.677L133.976 306.051L133.279 305.91L131.582 310.873L132.19 311.173L132.044 311.547L129.766 310.799Z" fill="#313131"/>
<path d="M121.161 307.621L121.906 305.525L122.451 305.717L122.047 307.399L123.734 308.127L125.699 303.19L124.355 302.554L124.501 302.18L127.579 303.372L127.433 303.746L126.533 303.505L124.633 308.368L125.433 308.811L125.287 309.185L121.161 307.621Z" fill="#313131"/>
<path d="M120.017 306.58L120.559 306.955L120.413 307.329L118.32 306.401L118.466 306.027L119.152 306.21L120.068 304.16L117.356 302.974L116.439 305.024L117.024 305.411L116.878 305.785L114.828 304.868L114.975 304.494L115.617 304.666L117.731 299.861L117.134 299.518L117.28 299.144L119.33 300.06L119.184 300.434L118.51 300.208L117.494 302.46L120.206 303.646L121.223 301.394L120.583 301.039L120.729 300.665L122.865 301.604L122.719 301.978L122.088 301.763L120.017 306.58Z" fill="#313131"/>
<path d="M112.034 303.476L111.223 303.076L111.993 296.947L111.568 296.649L111.757 296.286L113.741 297.277L113.552 297.64L112.878 297.413L112.673 298.69L114.86 299.781L115.758 298.828L115.13 298.43L115.319 298.067L117.101 298.958L116.912 299.32L116.409 299.14L112.034 303.476ZM112.144 302.037L111.992 302.777L112.518 302.183L114.488 300.14L112.59 299.172L112.144 302.037Z" fill="#313131"/>
<path d="M108.738 297.268C109.222 296.663 109.659 296.23 110.051 295.967C110.268 295.842 110.42 295.791 110.614 295.751C110.797 295.754 110.968 295.8 111.171 295.9C111.416 296.012 111.565 296.143 111.682 296.221L111.424 296.84C111.307 296.763 111.147 296.674 110.87 296.508C110.796 296.442 110.71 296.419 110.613 296.439C110.516 296.459 110.419 296.479 110.31 296.542C109.616 296.907 108.769 298.011 107.738 299.801L107.395 300.397L108.203 300.981L108.014 301.344L103.783 298.971L103.972 298.608L104.72 298.9L107.282 294.307L106.58 293.844L106.769 293.481L109.05 294.735L108.861 295.098L108.081 294.751L105.531 299.301L107.012 300.111L107.379 299.429C107.78 298.618 108.255 297.873 108.738 297.268Z" fill="#313131"/>
<path d="M96.0976 294.248L96.3293 293.897L97.0659 294.232L99.862 289.794L99.257 289.31L99.4888 288.959L101.564 290.296L101.332 290.647L100.638 290.323L97.8422 294.762L98.4472 295.245L98.2154 295.596L96.0976 294.248ZM101.872 294.969C101.287 294.583 100.939 294.168 100.786 293.714C100.632 293.26 100.715 292.777 101.036 292.266C101.368 291.712 101.814 291.419 102.342 291.331C102.871 291.243 103.428 291.392 104.024 291.735C104.099 291.801 104.184 291.824 104.258 291.89C104.333 291.956 104.407 292.022 104.493 292.044C104.758 292.253 104.992 292.408 105.183 292.551L106.162 293.181L105.93 293.532L105.279 293.219L102.483 297.658L103.003 298.118L102.771 298.47L100.727 297.187L100.959 296.836L101.738 297.183L102.777 295.533L101.872 294.969ZM104.281 292.493C104.206 292.427 104.089 292.35 103.887 292.249C103.493 292.006 103.107 291.903 102.762 291.994C102.416 292.085 102.121 292.327 101.824 292.753C101.58 293.146 101.489 293.489 101.58 293.835C101.671 294.181 101.913 294.475 102.307 294.718L103.052 295.193L104.566 292.799C104.472 292.636 104.398 292.57 104.281 292.493Z" fill="#313131"/>
<path d="M93.1953 291.542L93.6603 292.034L93.4285 292.385L91.5906 291.021L91.8223 290.67L92.4618 291.025L93.8265 289.187L91.4463 287.447L90.0816 289.285L90.5466 289.777L90.3148 290.128L88.5197 288.775L88.7515 288.424L89.3595 288.724L92.4639 284.506L91.9874 284.057L92.2192 283.706L94.0571 285.071L93.8253 285.422L93.2287 285.078L91.7867 287.033L94.1669 288.773L95.6089 286.818L95.0583 286.303L95.29 285.952L97.1708 287.328L96.939 287.679L96.3424 287.336L93.1953 291.542Z" fill="#313131"/>
<path d="M86.0568 286.829L85.3463 286.226L87.4128 280.398L87.0648 279.983L87.3279 279.687L89.0687 281.071L88.7941 281.411L88.209 281.025L87.7476 282.232L89.6682 283.803L90.7774 283.09L90.2695 282.587L90.5326 282.29L92.0822 283.531L91.8191 283.828L91.3395 283.562L86.0568 286.829ZM86.5098 285.481L86.229 286.187L86.8608 285.713L89.2107 284.139L87.5556 282.778L86.5098 285.481Z" fill="#313131"/>
<path d="M81.0518 281.862L81.6423 282.571L81.3791 282.867L79.7271 281.323L81.4224 277.737L81.9549 276.778L81.0515 277.408L77.6299 279.384L76.0092 277.894L76.2723 277.597L77.0372 278.169L80.1102 273.897L79.6253 273.308L79.8884 273.011L81.646 274.675L81.3829 274.972L80.7664 274.531L78.489 277.548L77.4991 278.844L78.5854 278.217L82.6357 275.951L83.038 276.334L81.3052 280.231L80.5807 281.735L81.7931 280.637L84.6327 278.092L84.0621 277.48L84.3253 277.184L85.946 278.674L85.6828 278.971L85.1092 278.541L81.0518 281.862Z" fill="#313131"/>
<path d="M73.6927 275.574L73.0479 274.896L75.8082 269.392L75.5145 268.946L75.8205 268.661L77.3639 270.268L77.0579 270.554L76.4843 270.125L75.8516 271.286L77.5863 273.037L78.7581 272.432L78.3161 271.855L78.6221 271.57L80.0286 273.002L79.7226 273.288L79.2973 272.99L73.6927 275.574ZM74.317 274.272L73.9505 274.955L74.6451 274.59L77.1946 273.299L75.6825 271.746L74.317 274.272Z" fill="#313131"/>
<path d="M70.8949 271.795L71.2513 272.349L70.9453 272.635L70.2065 271.794C70.0581 271.662 69.9212 271.488 69.7728 271.356C69.5502 271.159 69.3391 270.919 69.1594 270.733C68.6317 270.132 68.361 269.601 68.3472 269.138C68.3335 268.675 68.5768 268.281 69.0143 267.848C69.3631 267.574 69.7005 267.343 70.0776 267.306C70.4662 267.227 70.8631 267.287 71.2372 267.433C71.6112 267.579 71.9508 267.854 72.2674 268.214C72.373 268.334 72.4785 268.454 72.5841 268.575C72.6896 268.695 72.7523 268.803 72.7952 268.815L74.182 267.58L73.4662 266.653L73.7721 266.368L75.6093 268.421L75.3033 268.706L74.7839 268.246L70.8949 271.795ZM71.95 268.542C71.6647 268.236 71.3021 268.047 70.948 267.998C70.5938 267.949 70.128 268.146 69.6904 268.58C69.3302 268.896 69.1527 269.216 69.158 269.539C69.1633 269.862 69.34 270.23 69.6566 270.591C69.7622 270.711 69.9105 270.842 70.0589 270.974C70.1331 271.04 70.2073 271.105 70.2387 271.16L72.4662 269.186C72.3607 269.066 72.1924 268.837 71.95 268.542Z" fill="#313131"/>
<path d="M71.0308 263.751C71.1188 264.28 71.0354 264.762 70.7691 265.242C70.5457 265.733 70.151 266.178 69.6706 266.6C69.1902 267.022 68.6701 267.25 68.1415 267.338C67.613 267.426 67.0645 267.417 66.5735 267.193C66.071 267.013 65.6457 266.715 65.2664 266.246C64.9925 265.898 64.6989 265.452 64.4281 264.92L64.3142 264.66L65.5236 263.744L65.8716 264.159L65.1907 264.987C65.2106 265.084 65.219 265.224 65.3016 265.429C65.3957 265.592 65.5211 265.81 65.6894 266.038C65.9318 266.333 66.2087 266.499 66.5514 266.591C66.894 266.682 67.2711 266.646 67.6712 266.523C68.0712 266.401 68.5057 266.15 68.9203 265.802C69.3349 265.454 69.6524 265.126 69.8957 264.732C70.1389 264.338 70.2851 263.964 70.2912 263.599C70.2974 263.233 70.1635 262.876 69.9326 262.539C69.7643 262.31 69.5731 262.167 69.4247 262.035C69.2763 261.904 69.1478 261.869 69.0078 261.878L68.1534 262.154L67.8598 261.708L68.8917 261.112C68.9658 261.178 69.1142 261.309 69.3054 261.452C69.4966 261.595 69.6565 261.684 69.8049 261.816C69.9533 261.947 70.0902 262.122 70.3127 262.319C70.7464 262.757 70.9858 263.234 71.0308 263.751Z" fill="#313131"/>
<path d="M57.2952 255.388L57.6326 255.157L58.1488 255.8L61.6737 253.439L60.4368 253.429L56.6353 253.053L56.4609 253.19L56.7829 253.873L56.4455 254.104L55.1767 252.158L55.5141 251.927L55.9791 252.418L60.3416 249.501L60.0081 248.861L60.3455 248.63L61.6571 250.589L61.3198 250.819L60.8349 250.23L57.2557 252.623L58.4069 252.61L62.294 253.009L62.5656 252.852L62.2008 252.157L62.5381 251.926L63.8498 253.885L63.5124 254.116L63.0589 253.581L58.6964 256.498L58.987 257.127L58.6497 257.358L57.2952 255.388Z" fill="#313131"/>
<path d="M54.3101 250.594C54.1303 250.408 53.9934 250.234 53.845 250.102C53.6967 249.971 53.6454 249.819 53.5399 249.699C53.195 249.102 53.0099 248.593 52.9962 248.13C52.9824 247.667 53.2028 247.359 53.6373 247.108C54.0174 246.889 54.406 246.809 54.7915 246.913C55.177 247.016 55.4852 247.236 55.7705 247.542C55.5197 247.108 55.4088 246.665 55.5121 246.279C55.6154 245.894 55.8357 245.586 56.1731 245.355C56.6733 245.03 57.2019 244.942 57.6616 245.111C58.1212 245.28 58.5664 245.675 59.0169 246.392C59.1736 246.664 59.3304 246.935 59.4015 247.184C59.4726 247.432 59.5552 247.638 59.6065 247.79C59.6577 247.941 59.6776 248.038 59.6661 248.081L58.3543 248.694L58.1348 248.313L58.9326 247.563C58.9273 247.24 58.7935 246.883 58.5311 246.491C58.343 246.166 58.0776 245.957 57.8091 245.931C57.5406 245.905 57.1521 245.984 56.7719 246.204C56.4889 246.403 56.2915 246.626 56.1683 246.914C56.088 247.214 56.1675 247.603 56.4298 247.994L56.7549 248.495L56.3632 248.757L56.1124 248.322C55.9869 248.105 55.8386 247.974 55.6473 247.831C55.4561 247.687 55.242 247.63 55.0163 247.616C54.7907 247.601 54.5421 247.672 54.2705 247.829C53.9447 248.017 53.7901 248.251 53.7213 248.508C53.6952 248.777 53.7549 249.068 53.943 249.394C54.0684 249.611 54.2053 249.786 54.3652 249.874C54.5136 250.006 54.6421 250.04 54.7392 250.02L55.4965 249.764L55.7902 250.21L54.7238 250.934C54.6382 250.911 54.5326 250.791 54.3101 250.594Z" fill="#313131"/>
<path d="M50.9986 244.106L51.2349 244.766L50.8662 244.943L50.3133 243.922C50.2192 243.759 50.0937 243.542 49.9255 243.313C49.7572 243.085 49.6632 242.922 49.6005 242.813C49.2357 242.119 49.1049 241.578 49.1225 241.17C49.183 240.773 49.4033 240.465 49.8378 240.214C50.2065 240.037 50.5522 239.946 50.8949 240.038C51.2491 240.087 51.5573 240.307 51.7997 240.602C51.5604 240.125 51.4495 239.682 51.5528 239.296C51.6561 238.911 51.8764 238.603 52.2994 238.394C52.7882 238.112 53.3053 238.067 53.7963 238.291C54.2988 238.471 54.7639 238.963 55.2227 239.82C55.3168 239.983 55.3994 240.189 55.4935 240.352C55.6701 240.721 55.7841 240.981 55.8583 241.047L56.3798 242.013L56.0111 242.189L55.6119 241.623L50.9986 244.106ZM52.3496 241.805L52.1416 241.382C51.9534 241.056 51.7424 240.816 51.4425 240.736C51.1427 240.655 50.8512 240.715 50.4826 240.892C50.1567 241.08 49.9165 241.291 49.8476 241.548C49.7788 241.805 49.8698 242.151 50.0778 242.574C50.1718 242.737 50.2973 242.954 50.3913 243.117L50.4854 243.28L52.5691 242.185C52.5691 242.185 52.475 242.022 52.3496 241.805ZM54.8969 240.009C54.6147 239.52 54.3294 239.214 53.9982 239.079C53.667 238.945 53.3327 238.993 52.9526 239.212C52.5724 239.432 52.3322 239.643 52.2947 239.954C52.2572 240.265 52.3053 240.6 52.5562 241.034C52.8384 241.523 52.9837 241.837 53.0778 242L55.2815 240.8C55.2188 240.692 55.1049 240.432 54.8969 240.009Z" fill="#313131"/>
<path d="M47.1676 237.846L46.7516 237L51.0844 232.651L50.9422 232.154L51.3108 231.978L52.2882 233.984L51.9195 234.161L51.5318 233.552L50.5595 234.439L51.6195 236.651L52.9137 236.447L52.6889 235.744L53.0576 235.567L53.9095 237.357L53.5408 237.533L53.2471 237.087L47.1676 237.846ZM48.143 236.776L47.5425 237.303L48.3196 237.144L51.1338 236.751L50.1877 234.798L48.143 236.776Z" fill="#313131"/>
<path d="M50.4921 230.748C50.4087 231.231 50.1853 231.722 49.8564 232.093C49.5274 232.464 49.0157 232.832 48.4412 233.091C47.8667 233.35 47.2954 233.427 46.7584 233.375C46.2214 233.323 45.7189 233.142 45.2937 232.845C44.8684 232.547 44.5319 232.09 44.304 231.569C44.1388 231.158 43.9966 230.661 43.8773 230.078L43.8177 229.786L45.2465 229.251L45.4744 229.771L44.571 230.401C44.5481 230.487 44.545 230.67 44.5848 230.864C44.6245 231.058 44.6956 231.307 44.8096 231.567C44.9549 231.881 45.1545 232.165 45.4742 232.342C45.7939 232.519 46.1366 232.611 46.5565 232.586C46.9765 232.561 47.4622 232.461 47.9823 232.234C48.4482 232.037 48.8827 231.786 49.243 231.47C49.6033 231.153 49.8236 230.845 49.9269 230.459C50.073 230.085 50.0363 229.708 49.8597 229.339C49.7457 229.079 49.6203 228.862 49.5147 228.742C49.4092 228.622 49.3036 228.502 49.1323 228.456L48.2183 228.44L48.076 227.943L49.2532 227.662C49.3159 227.771 49.41 227.933 49.5469 228.108C49.6838 228.282 49.8322 228.414 49.9263 228.577C50.0203 228.74 50.1458 228.957 50.2597 229.217C50.4876 229.737 50.5755 230.266 50.4921 230.748Z" fill="#313131"/>
<path d="M43.195 225.258C42.7123 225.175 42.2641 224.963 41.9245 224.688C41.5849 224.413 41.3226 224.022 41.1689 223.567C40.9838 223.059 40.9273 222.584 41.0535 222.113C41.1798 221.642 41.3802 221.237 41.7405 220.92C42.1123 220.561 42.5468 220.31 43.1097 220.093C43.7699 219.857 44.3413 219.781 44.8897 219.79C45.4267 219.842 45.9292 220.022 46.3116 220.309C46.694 220.595 46.9992 220.998 47.1957 221.464C47.3808 221.972 47.4259 222.489 47.3425 222.972C47.259 223.455 47.0158 223.849 46.644 224.208C46.2722 224.568 45.8263 224.861 45.2633 225.078L45.7473 226.355L48.0421 225.501L47.8716 224.767L48.2717 224.644L49.0632 226.83L48.6631 226.953L48.3297 226.312L43.4372 228.123L43.5764 228.803L43.1763 228.926L42.3733 226.782L42.7734 226.66L43.1068 227.3L45.2501 226.497L44.7661 225.22C44.2261 225.351 43.6661 225.384 43.195 225.258ZM42.6818 224.432C43.2386 224.581 43.95 224.496 44.8274 224.134C45.5961 223.835 46.1507 223.479 46.5026 223.022C46.8545 222.566 46.9379 222.083 46.7528 221.575C46.5678 221.066 46.1853 220.78 45.6713 220.642C45.1573 220.504 44.4345 220.632 43.5686 220.951C42.7999 221.25 42.2453 221.606 41.9049 222.02C41.553 222.477 41.481 222.916 41.6661 223.425C41.7968 223.965 42.1678 224.294 42.6818 224.432Z" fill="#313131"/>
<path d="M42.3862 215.768C42.6065 215.46 42.8926 215.077 43.2874 214.632C43.5505 214.335 43.7479 214.113 43.8909 213.922C44.0225 213.773 44.0569 213.645 44.0799 213.559L44.0746 213.236L44.4746 213.114L44.8019 214.12C44.8646 214.228 44.7644 214.431 44.6214 214.622C44.4668 214.856 44.2037 215.153 43.8319 215.512C43.4372 215.958 43.1197 216.286 42.9109 216.551C42.702 216.817 42.6446 217.031 42.6959 217.182L42.8381 217.679L45.1413 216.965L45.0251 216.199L45.4251 216.077L46.1195 218.283L45.7194 218.406L45.4288 217.777L40.4224 219.328L40.5187 219.996L40.1187 220.118L39.4557 217.967L39.8557 217.844L40.1464 218.473L42.4495 217.759L42.2247 217.056L39.3893 216.158L39.517 216.881L39.1169 217.004L38.5052 215.003L38.9052 214.881L39.2073 215.467L42.1054 216.473C42.0542 216.322 42.1774 216.033 42.3862 215.768Z" fill="#313131"/>
<path d="M43.7335 211.767C43.5644 212.227 43.2783 212.61 42.8751 212.915C42.472 213.22 41.9404 213.491 41.3461 213.653C40.7089 213.803 40.149 213.837 39.6235 213.742C39.098 213.647 38.6613 213.392 38.2903 213.063C37.9194 212.735 37.6685 212.3 37.5378 211.76C37.3046 210.917 37.4025 210.209 37.8432 209.592C38.2723 209.019 38.9355 208.6 39.8756 208.346C40.5128 208.196 41.1155 208.174 41.641 208.269C42.1665 208.363 42.646 208.63 43.017 208.959C43.3879 209.288 43.6388 209.722 43.7696 210.262C43.9003 210.802 43.9026 211.308 43.7335 211.767ZM38.9306 212.73C39.4759 212.922 40.1758 212.88 41.0616 212.658C41.8931 212.468 42.4905 212.123 42.8737 211.721C43.257 211.318 43.3947 210.804 43.2525 210.307C43.1217 209.767 42.7508 209.438 42.2054 209.246C41.6601 209.054 40.9173 209.085 40.0316 209.306C39.2001 209.497 38.6027 209.842 38.2194 210.244C37.8362 210.646 37.7099 211.117 37.8407 211.658C38.0686 212.178 38.4281 212.549 38.9306 212.73Z" fill="#313131"/>
<path d="M37.0402 207.449L37.0822 208.149L36.6936 208.228L36.4436 207.106C36.4038 206.911 36.3327 206.663 36.2616 206.414C36.1905 206.165 36.1079 205.96 36.0995 205.82C35.9404 205.043 35.9497 204.494 36.0958 204.12C36.2419 203.746 36.5793 203.515 37.0222 203.404C37.4107 203.325 37.7649 203.374 38.0961 203.508C38.4158 203.686 38.6697 203.938 38.8464 204.306C38.7156 203.766 38.7332 203.358 38.9222 202.995C39.1112 202.633 39.4485 202.402 39.8799 202.334C40.42 202.203 40.9454 202.298 41.3592 202.638C41.7845 202.936 42.1179 203.576 42.2968 204.45C42.3366 204.645 42.3763 204.839 42.3733 205.022C42.4413 205.453 42.5124 205.702 42.5323 205.799L42.7938 206.879L42.4052 206.958L42.1689 206.298L37.0402 207.449ZM38.9533 205.62L38.8425 205.177C38.763 204.789 38.6062 204.517 38.3293 204.351C38.0952 204.197 37.7411 204.148 37.3411 204.27C36.9525 204.35 36.6809 204.506 36.5692 204.752C36.4575 204.997 36.4085 205.352 36.5079 205.837C36.5477 206.032 36.5875 206.226 36.67 206.432L36.7213 206.583L39.0099 206.095C39.0329 206.009 38.9816 205.857 38.9533 205.62ZM41.8539 204.561C41.7232 204.021 41.5465 203.652 41.2383 203.432C40.9729 203.223 40.6187 203.174 40.1758 203.285C39.7444 203.353 39.4614 203.553 39.3497 203.798C39.1952 204.032 39.1776 204.441 39.277 204.927C39.4077 205.467 39.4872 205.855 39.5385 206.007L41.9785 205.467C42.013 205.338 41.9533 205.047 41.8539 204.561Z" fill="#313131"/>
<path d="M34.1275 194.503L34.5589 194.435L34.7838 195.138L39.9607 194.321L39.9416 193.536L40.373 193.468L40.753 195.819L40.3216 195.887L40.1396 195.196L34.9627 196.012L35.3908 198.698L40.6105 197.893L40.5915 197.107L41.0229 197.039L41.36 199.379L40.9286 199.447L40.7351 198.798L35.5582 199.615L35.5459 200.346L35.1145 200.414L34.1275 194.503Z" fill="#313131"/>
<path d="M39.8211 191.759C39.6206 192.164 39.2489 192.524 38.8144 192.775C38.3799 193.025 37.8284 193.199 37.1713 193.252C36.5143 193.306 35.9345 193.242 35.432 193.062C34.9294 192.881 34.5042 192.584 34.199 192.181C33.8939 191.777 33.6973 191.312 33.6522 190.795C33.559 189.943 33.7541 189.215 34.2575 188.707C34.7608 188.199 35.4867 187.889 36.478 187.787C37.1351 187.734 37.7149 187.797 38.2174 187.978C38.7199 188.158 39.1452 188.456 39.4932 188.871C39.7983 189.274 39.9949 189.74 40.04 190.257C40.1049 190.871 40.0215 191.353 39.8211 191.759ZM34.9333 192.01C35.4557 192.288 36.1327 192.331 37.0697 192.261C37.921 192.168 38.5268 191.963 38.9958 191.584C39.4532 191.247 39.6651 190.799 39.5887 190.227C39.5436 189.71 39.2384 189.307 38.716 189.03C38.1936 188.752 37.4739 188.697 36.5797 188.778C35.7283 188.872 35.0797 189.065 34.6536 189.456C34.1962 189.793 34.0271 190.252 34.1035 190.824C34.1371 191.384 34.4423 191.787 34.9333 192.01Z" fill="#313131"/>
<path d="M37.1588 185.077C37.9214 185.144 38.5326 185.262 38.9379 185.462C39.1406 185.562 39.289 185.694 39.3945 185.814C39.4886 185.977 39.5399 186.128 39.5796 186.323C39.5964 186.603 39.5933 186.786 39.5589 186.914L38.8904 187.01C38.882 186.87 38.8851 186.688 38.8797 186.365C38.8598 186.268 38.84 186.17 38.7658 186.105C38.6916 186.039 38.6174 185.973 38.5004 185.896C37.8181 185.529 36.4329 185.388 34.3761 185.525L33.719 185.579L33.6922 186.536L33.2722 186.561L32.9667 181.704L33.3866 181.679L33.5456 182.456L38.7791 182.114L38.8144 181.297L39.2343 181.272L39.4169 183.846L38.997 183.871L38.8609 183.008L33.6389 183.308L33.7282 185.03L34.471 185C35.525 185.007 36.3962 185.011 37.1588 185.077Z" fill="#313131"/>
<path d="M33.4765 180.143L33.3786 180.851L32.9586 180.876L32.8695 176.583L34.1951 176.433L34.2088 176.896L33.4087 177.14L33.3948 179.248L35.7514 179.191L35.7102 177.803L35.002 177.705L34.9882 177.242L36.925 177.21L36.9387 177.673L36.2158 177.801L36.2027 179.22L38.6994 179.155L38.5565 176.775L37.4773 176.348L37.615 175.834L39.0744 176.042L39.1574 180.701L38.7375 180.726L38.6526 180.014L33.4765 180.143Z" fill="#313131"/>
<path d="M33.3791 173.138L33.4088 174.57L35.1566 174.9L35.1473 175.449L32.9024 175.26L33.0229 170.013L35.2824 169.976L35.2732 170.524L33.5047 170.785L33.4373 172.236L38.7388 172.325L38.8345 171.111L39.243 171.129L39.1678 174.322L38.7593 174.305L38.6921 173.185L33.3791 173.138Z" fill="#313131"/>
<path d="M36.7266 166.644L36.709 167.052C36.803 167.215 36.9514 167.347 37.2283 167.513C37.4623 167.667 37.782 167.845 38.1874 168.045C38.5928 168.246 38.8697 168.412 39.0724 168.512C39.2751 168.612 39.3806 168.732 39.3576 168.818L39.2849 169.946L38.8764 169.928L38.8283 169.594C38.8084 169.497 38.7342 169.431 38.6287 169.311C38.4688 169.222 38.2776 169.079 37.9693 168.859C37.6068 168.67 37.3414 168.461 37.1074 168.307C36.8733 168.152 36.7364 167.978 36.6423 167.815C36.4962 168.189 36.2874 168.454 35.95 168.685C35.6242 168.873 35.2784 168.964 34.8271 168.935C34.1502 168.892 33.702 168.68 33.4511 168.245C33.2003 167.811 33.1238 167.239 33.179 166.52C33.1821 166.337 33.228 166.165 33.254 165.897C33.28 165.628 33.3374 165.414 33.329 165.274L33.4247 164.06L33.8332 164.078L33.8752 164.778L39.1078 165.124L39.2288 164.33L39.6372 164.348L39.4771 166.83L39.0687 166.812L39.0611 165.984L36.8047 165.838L36.7266 166.644ZM33.6739 165.872C33.6051 166.129 33.5905 166.354 33.5874 166.537C33.5583 166.988 33.6065 167.323 33.8176 167.563C34.0287 167.803 34.317 167.926 34.8112 167.967C35.2624 167.996 35.6082 167.905 35.8912 167.705C36.1742 167.506 36.2661 167.163 36.338 166.723C36.3671 166.272 36.3931 166.003 36.3534 165.809L33.7856 165.626L33.6739 165.872Z" fill="#313131"/>
<path d="M34.0995 161.028L33.9892 162.467L35.7026 162.926L35.6505 163.463L33.4086 163.092L33.9804 157.874L36.2369 158.02L36.1848 158.557L34.4194 158.634L34.212 160.094L39.473 160.677L39.6972 159.498L40.0942 159.558L39.739 162.768L39.342 162.708L39.3604 161.611L34.0995 161.028Z" fill="#313131"/>
<path d="M40.4658 154.745C40.1369 155.116 39.6909 155.41 39.1937 155.552C38.6965 155.694 38.0938 155.717 37.4826 155.599C36.8715 155.481 36.3261 155.289 35.9123 154.948C35.4985 154.608 35.1506 154.193 34.9655 153.685C34.7804 153.176 34.7353 152.659 34.8417 152.091C34.9137 151.651 35.0514 151.137 35.2863 150.603L35.398 150.357L36.8772 150.662L36.7709 151.23L35.6625 151.255C35.5967 151.329 35.5195 151.446 35.4193 151.649C35.3305 151.808 35.2617 152.065 35.2356 152.334C35.1866 152.688 35.2348 153.022 35.3801 153.337C35.5254 153.651 35.7793 153.903 36.1732 154.146C36.5243 154.378 36.9955 154.504 37.5638 154.611C38.0893 154.705 38.552 154.692 39.0263 154.635C39.4577 154.567 39.8692 154.402 40.1637 154.159C40.4582 153.917 40.6357 153.597 40.7077 153.157C40.7452 152.846 40.7597 152.621 40.7513 152.481C40.7429 152.341 40.6917 152.189 40.5976 152.026L39.8526 151.551L39.9904 151.037L41.1239 151.433C41.0895 151.561 41.1407 151.713 41.169 151.95C41.2087 152.144 41.1942 152.37 41.234 152.564C41.2737 152.758 41.2163 152.972 41.1788 153.284C41.0296 153.841 40.8062 154.332 40.4658 154.745Z" fill="#313131"/>
<path d="M35.8533 146.945L36.2503 147.005L36.1722 147.81L40.2988 148.687L39.4314 147.812L37.0184 144.824L36.8043 144.766L36.5663 145.483L36.1694 145.422L36.6377 143.161L37.0346 143.221L36.991 143.898L42.1142 144.995L42.3407 144.322L42.7262 144.425L42.2464 146.729L41.8609 146.626L41.9275 145.864L37.7153 144.964L38.5512 145.785L40.9956 148.827L41.2954 148.908L41.5448 148.148L41.9418 148.209L41.462 150.513L41.0651 150.453L41.1202 149.733L35.997 148.636L35.782 149.267L35.385 149.206L35.8533 146.945Z" fill="#313131"/>
<path d="M37.917 138.04L40.0816 138.529L39.9324 139.085L38.2359 138.906L37.711 140.694L42.874 141.985L43.3384 140.595L43.7239 140.698L42.9174 143.879L42.5319 143.776L42.6873 142.854L37.61 141.585L37.2948 142.419L36.9093 142.315L37.917 138.04Z" fill="#313131"/>
<path d="M38.8101 136.765L38.5094 137.373L38.1239 137.27L38.8064 135.065L39.1919 135.168L39.0939 135.877L41.2555 136.548L42.1101 133.701L39.9486 133.03L39.6479 133.638L39.2624 133.535L39.9334 131.373L40.3189 131.476L40.2324 132.142L45.2409 133.667L45.4987 133.048L45.8842 133.151L45.2132 135.313L44.8277 135.209L44.9685 134.513L42.6356 133.796L41.781 136.643L44.1138 137.36L44.3831 136.697L44.7686 136.8L44.0862 139.005L43.7007 138.902L43.83 138.248L38.8101 136.765Z" fill="#313131"/>
<path d="M40.8541 128.452L41.1808 127.575L47.3336 127.571L47.5998 127.092L47.9739 127.238L47.2287 129.334L46.8547 129.188L46.9955 128.491L45.6729 128.458L44.8704 130.768L45.9006 131.549L46.2128 130.898L46.5868 131.044L45.9418 132.937L45.5678 132.791L45.6627 132.265L40.8541 128.452ZM42.328 128.434L41.5654 128.367L42.2247 128.819L44.4765 130.524L45.1987 128.514L42.328 128.434Z" fill="#313131"/>
<path d="M46.6655 124.408C47.3363 124.818 47.8358 125.181 48.1096 125.53C48.2465 125.704 48.3291 125.91 48.3803 126.062C48.4201 126.256 48.3741 126.427 48.3282 126.598C48.2165 126.844 48.1278 127.004 48.0505 127.121L47.4195 126.906C47.4968 126.789 47.5542 126.575 47.6659 126.329C47.6888 126.244 47.7232 126.115 47.6919 126.061C47.672 125.964 47.6093 125.855 47.5466 125.746C47.0732 125.114 45.8915 124.385 43.9785 123.643L43.359 123.385L42.9038 124.227L42.5297 124.081L44.3376 119.561L44.7116 119.707L44.505 120.478L49.3559 122.421L49.7338 121.696L50.1078 121.842L49.1423 124.246L48.7683 124.1L48.9978 123.243L44.147 121.3L43.4967 122.871L44.2019 123.151C45.1725 123.641 45.9947 123.999 46.6655 124.408Z" fill="#313131"/>
<path d="M48.0229 117.289C48.3235 116.681 48.6639 116.267 49.1298 116.07C49.5956 115.874 50.0469 115.903 50.5808 116.138C51.146 116.427 51.5483 116.81 51.6791 117.35C51.8213 117.847 51.7578 118.427 51.4571 119.035C51.4342 119.121 51.3684 119.195 51.3454 119.281C51.2796 119.355 51.2567 119.441 51.1794 119.558C51.0134 119.834 50.9017 120.08 50.79 120.326L50.3317 121.35L49.9692 121.162L50.1957 120.488L45.4252 118.245L45.0388 118.83L44.6763 118.641L45.6701 116.475L46.0326 116.664L45.7717 117.466L47.5218 118.302L48.0229 117.289ZM48.0241 111.459L48.3867 111.648L48.1372 112.407L52.8649 114.638L53.2742 113.967L53.6367 114.156L52.5772 116.397L52.2146 116.208L52.464 115.449L47.7364 113.218L47.3271 113.889L46.9645 113.7L48.0241 111.459ZM50.8054 119.411C50.8712 119.337 50.9171 119.166 51.0058 119.006C51.2063 118.601 51.2239 118.192 51.0901 117.835C50.9562 117.478 50.6595 117.215 50.2113 117.003C49.8059 116.802 49.3974 116.785 49.0945 116.887C48.7801 117.032 48.5285 117.286 48.328 117.692L47.9814 118.471L50.5537 119.665C50.6623 119.603 50.7396 119.486 50.8054 119.411Z" fill="#313131"/>
<path d="M50.3043 108.259L49.8866 108.79L49.5241 108.601L50.6548 106.609L51.0173 106.798L50.748 107.46L52.752 108.548L54.1833 105.947L52.1794 104.86L51.7617 105.39L51.3991 105.201L52.4755 103.24L52.8381 103.429L52.6231 104.06L57.2161 106.622L57.6338 106.092L57.9963 106.281L56.9084 108.284L56.5459 108.095L56.8152 107.433L54.6514 106.257L53.22 108.857L55.3839 110.034L55.8245 109.417L56.187 109.606L55.0449 111.641L54.6823 111.452L54.9401 110.833L50.3043 108.259Z" fill="#313131"/>
<path d="M54.1017 100.6L54.5882 99.812L60.611 101.15L60.9514 100.737L61.3025 100.968L60.109 102.852L59.758 102.62L60.0701 101.97L58.7851 101.625L57.4915 103.712L58.3244 104.715L58.7964 104.153L59.1474 104.385L58.0971 106.078L57.746 105.846L57.9694 105.355L54.1017 100.6ZM55.4953 100.881L54.7672 100.686L55.3064 101.244L57.1634 103.394L58.291 101.585L55.4953 100.881Z" fill="#313131"/>
<path d="M58.4125 94.9607L57.8089 95.6713L57.4579 95.4395L58.7683 93.6329L62.5231 94.8685L63.5595 95.284L62.8207 94.4433L60.4107 91.2726L61.7212 89.466L62.0722 89.6978L61.6285 90.497L66.2873 92.9849L66.8021 92.4342L67.1532 92.666L65.6997 94.6638L65.3487 94.432L65.7151 93.7498L62.4124 91.8548L60.9737 91.0561L61.7638 92.0483L64.5301 95.7736L64.221 96.2417L60.1435 95.0114L58.5387 94.4896L59.7686 95.5536L62.6421 98.0222L63.1799 97.3859L63.531 97.6177L62.2749 99.3929L61.9238 99.1611L62.2788 98.5217L58.4125 94.9607Z" fill="#313131"/>
<path d="M63.6896 86.9176L64.2504 86.1956L70.0895 88.2192L70.4612 87.8598L70.8008 88.1344L69.4162 89.8752L69.0766 89.6006L69.4629 89.0155L68.2552 88.5541L66.7275 90.4861L67.4518 91.5525L67.9551 91.0446L68.2947 91.3192L67.0532 92.8688L66.7136 92.5942L66.9798 92.1146L63.6896 86.9176ZM65.0488 87.3277L64.3436 87.0469L64.817 87.6788L66.391 90.0287L67.7098 88.3621L65.0488 87.3277Z" fill="#313131"/>
<path d="M67.0899 83.651L66.5667 84.0617L66.2271 83.7871L66.9623 82.9282C67.0938 82.7798 67.2254 82.6314 67.3142 82.4716C67.5115 82.249 67.6661 82.015 67.8634 81.7924C68.3897 81.1989 68.9015 80.831 69.3329 80.763C69.7643 80.6949 70.224 80.864 70.6691 81.2587C71.0087 81.5334 71.2397 81.8707 71.362 82.2708C71.4844 82.6708 71.4782 83.0364 71.3749 83.4219C71.2716 83.8074 71.0712 84.2128 70.7537 84.5409C70.6336 84.6465 70.5449 84.8063 70.4248 84.9119C70.3047 85.0174 70.2389 85.0916 70.2274 85.1344L71.6485 86.3416L72.4579 85.5484L72.7546 85.8116L70.9554 87.9004L70.6586 87.6372L71.045 87.0521L67.0899 83.651ZM70.457 84.2778C70.7316 83.9382 70.8777 83.5642 70.8411 83.1871C70.8044 82.81 70.5849 82.4298 70.1084 81.9808C69.7374 81.6518 69.4063 81.5172 69.072 81.5653C68.7377 81.6135 68.4547 81.8131 68.0714 82.2154C67.9399 82.3638 67.8511 82.5236 67.7195 82.672C67.6423 82.789 67.588 82.8204 67.5765 82.8632L69.8565 84.8055C70.0079 84.7543 70.1938 84.5745 70.457 84.2778Z" fill="#313131"/>
<path d="M75.1288 82.775C74.6316 82.9173 74.1375 82.8767 73.6235 82.7389C73.121 82.5584 72.6414 82.2922 72.1649 81.8431C71.7312 81.4056 71.3947 80.9481 71.2211 80.3966C71.0361 79.8879 71.0453 79.3395 71.1402 78.814C71.2779 78.3 71.5013 77.809 71.9274 77.4182C72.2449 77.09 72.6052 76.7734 73.1597 76.417L73.3885 76.2487L74.424 77.3526L74.0408 77.7549L73.0931 77.1796C72.996 77.1995 72.8445 77.2507 72.6816 77.3448C72.5187 77.4389 72.3328 77.6186 72.1469 77.7983C71.8952 78.0523 71.7606 78.3834 71.7231 78.6948C71.6741 79.0489 71.7651 79.3946 71.9303 79.8062C72.1069 80.1749 72.4121 80.578 72.8144 80.9613C73.1739 81.333 73.6106 81.5878 74.016 81.7882C74.4214 81.9887 74.8183 82.0491 75.1954 82.0124C75.5725 81.9757 75.8984 81.7876 76.2044 81.5023C76.4017 81.2798 76.5448 81.0885 76.6221 80.9715C76.6993 80.8545 76.7452 80.6832 76.7368 80.5432L76.3636 79.7086L76.7782 79.3607L77.5255 80.3413C77.4597 80.4155 77.3709 80.5754 77.2592 80.8209C77.159 81.0236 77.0703 81.1834 76.9815 81.3433C76.8928 81.5031 76.7497 81.6944 76.5524 81.9169C76.072 82.3391 75.5832 82.6213 75.1288 82.775Z" fill="#313131"/>
<path d="M80.118 69.4669L80.4033 69.7729L79.8655 70.4092L82.6954 73.5547L82.5226 72.3148L82.35 68.5041L82.2131 68.3297L81.5928 68.7602L81.3075 68.4543L83.0547 66.9024L83.3399 67.2084L82.9223 67.7392L86.4168 71.6596L86.9828 71.2604L87.2681 71.5664L85.5209 73.1182L85.2356 72.8122L85.7505 72.2615L82.8893 69.0617L83.085 70.216L83.2346 74.1124L83.4456 74.3526L84.0775 73.8792L84.3628 74.1852L82.6041 75.7798L82.3189 75.4738L82.7794 74.9545L79.2849 71.0341L78.7303 71.3905L78.445 71.0845L80.118 69.4669Z" fill="#313131"/>
<path d="M84.4816 65.8617C84.6247 65.6705 84.7677 65.4793 84.8993 65.3309C85.0309 65.1825 85.151 65.077 85.2711 64.9714C85.8058 64.5179 86.3259 64.29 86.7574 64.2219C87.1888 64.1539 87.5513 64.3429 87.8679 64.7032C88.1417 65.052 88.2756 65.4092 88.2151 65.8062C88.1547 66.2032 88.02 66.5344 87.7454 66.8739C88.1485 66.5688 88.56 66.4036 88.957 66.4641C89.3655 66.4817 89.6852 66.6592 89.959 67.008C90.3383 67.4769 90.4806 67.9741 90.3972 68.4568C90.3137 68.9394 89.9504 69.4388 89.307 69.9551C89.0668 70.1662 88.7953 70.323 88.5781 70.4484C88.3608 70.5738 88.155 70.6564 88.0036 70.7077C87.8521 70.7589 87.755 70.7788 87.7435 70.8216L86.9252 69.5923L87.274 69.3185L88.1444 70.0108C88.4358 69.9512 88.8045 69.7745 89.1648 69.4579C89.4593 69.2155 89.6253 68.9386 89.6085 68.6586C89.6032 68.3358 89.5007 68.0329 89.1841 67.6726C88.9845 67.3896 88.7076 67.2236 88.3963 67.1861C88.085 67.1486 87.7277 67.2824 87.3246 67.5876L86.8557 67.9669L86.5391 67.6066L86.8994 67.29C87.0738 67.1531 87.2168 66.9619 87.317 66.7592C87.4173 66.5565 87.4747 66.3423 87.4464 66.1052C87.4181 65.8681 87.2927 65.6508 87.1244 65.4221C86.882 65.1276 86.6479 64.9731 86.368 64.9899C86.088 65.0067 85.8279 65.1206 85.5449 65.3202C85.359 65.5 85.2274 65.6484 85.0959 65.7967C84.9643 65.9451 84.9727 66.0851 84.9926 66.1822L85.3574 66.8768L84.9428 67.2248L84.0556 66.2525C84.1642 66.1898 84.2958 66.0414 84.4816 65.8617Z" fill="#313131"/>
<path d="M90.4254 61.6698L89.7852 62.0032L89.5542 61.6659L90.4691 60.9928C90.632 60.8988 90.8179 60.719 91.0466 60.5508C91.2325 60.371 91.4069 60.2341 91.5155 60.1714C92.1474 59.698 92.6675 59.4701 93.076 59.4877C93.4844 59.5054 93.847 59.6943 94.1208 60.0431C94.3518 60.3805 94.4428 60.7262 94.4366 61.0919C94.4305 61.4575 94.253 61.7772 93.9898 62.0739C94.4044 61.7259 94.8473 61.6151 95.2558 61.6327C95.6642 61.6503 96.0153 61.8821 96.2463 62.2195C96.5828 62.6769 96.6822 63.1626 96.5873 63.6881C96.4924 64.2136 96.0319 64.7329 95.2799 65.3119C95.1055 65.4488 94.9426 65.5428 94.7797 65.6369C94.3995 65.8564 94.2136 66.0362 94.1165 66.056L93.2016 66.7291L92.9706 66.3917L93.4625 65.9267L90.4254 61.6698ZM92.8608 62.6896L93.2524 62.4273C93.5898 62.1963 93.7558 61.9194 93.7818 61.6509C93.8078 61.3825 93.7168 61.0367 93.4859 60.6994C93.2549 60.362 93.0208 60.2075 92.7524 60.1815C92.4839 60.1554 92.1267 60.2893 91.7779 60.5631C91.6034 60.7 91.4405 60.794 91.3089 60.9424L91.1888 61.048L92.5663 62.932C92.5234 62.9206 92.6864 62.8265 92.8608 62.6896ZM95.0176 64.9202C95.475 64.5837 95.7497 64.2441 95.7987 63.89C95.8476 63.5358 95.7566 63.1901 95.5257 62.8527C95.2519 62.5039 94.9865 62.2951 94.718 62.2691C94.4067 62.2315 94.0923 62.3769 93.6892 62.682C93.2317 63.0185 92.9487 63.2181 92.8286 63.3237L94.3001 65.3707C94.3972 65.3508 94.626 65.1826 95.0176 64.9202Z" fill="#313131"/>
<path d="M96.0869 56.9889L96.8702 56.4643L101.799 60.1722L102.276 59.9328L102.507 60.2701L100.658 61.519L100.427 61.1817L100.961 60.7282L99.9425 59.9043L97.8756 61.2786L98.2312 62.5216L98.8714 62.1882L99.1024 62.5255L97.4272 63.6375L97.1962 63.3002L97.568 62.9407L96.0869 56.9889ZM97.2885 57.8159L96.6835 57.3324L96.9396 58.0897L97.7219 60.8243L99.5058 59.6495L97.2885 57.8159Z" fill="#313131"/>
<path d="M103.556 59.266C103.051 59.2682 102.591 59.0992 102.112 58.8329C101.686 58.5353 101.296 58.1093 100.939 57.5547C100.626 57.0116 100.452 56.4601 100.407 55.943C100.362 55.4259 100.511 54.8691 100.766 54.4323C101.032 53.9528 101.404 53.5933 101.904 53.2683C102.284 53.0488 102.75 52.8522 103.356 52.6473L103.616 52.5333L104.314 53.8682L103.825 54.1504L103.075 53.3525C102.989 53.3295 102.838 53.3808 102.644 53.4205C102.449 53.4603 102.232 53.5857 102.015 53.7112C101.689 53.8993 101.48 54.1647 101.357 54.4531C101.222 54.7842 101.173 55.1384 101.241 55.5698C101.309 56.0012 101.506 56.467 101.8 56.913C102.093 57.359 102.399 57.7621 102.738 58.0367C103.078 58.3114 103.44 58.5003 103.826 58.6036C104.211 58.7069 104.557 58.6159 104.937 58.3964C105.209 58.2396 105.383 58.1027 105.46 57.9857C105.581 57.8802 105.669 57.7203 105.704 57.5918L105.579 56.6862L106.056 56.4468L106.489 57.5728C106.381 57.6355 106.261 57.741 106.117 57.9322C105.986 58.0806 105.854 58.229 105.68 58.3659C105.548 58.5143 105.331 58.6397 105.114 58.7651C104.602 59.133 104.062 59.2637 103.556 59.266Z" fill="#313131"/>
<path d="M107.951 51.2615C107.992 50.7674 108.118 50.2962 108.361 49.9023C108.604 49.5084 108.91 49.2232 109.345 48.9723C109.834 48.6901 110.319 48.5907 110.771 48.6198C111.222 48.6489 111.682 48.818 112.053 49.1469C112.424 49.4759 112.772 49.8905 113.097 50.3907C113.442 50.9882 113.604 51.5825 113.637 52.1424C113.671 52.7023 113.587 53.185 113.333 53.6217C113.078 54.0584 112.761 54.3866 112.326 54.6374C111.837 54.9196 111.352 55.019 110.857 54.9784C110.406 54.9493 109.946 54.7802 109.564 54.4941C109.182 54.208 108.791 53.782 108.52 53.2503L107.337 53.8973L108.505 56.0468L109.177 55.7677L109.354 56.1364L107.313 57.2422L107.136 56.8735L107.702 56.4743L105.22 51.861L104.559 52.0973L104.34 51.7171L106.326 50.6426L106.546 51.0228L105.98 51.422L107.054 53.4085L108.281 52.773C108.041 52.2957 107.942 51.81 107.951 51.2615ZM108.746 50.694C108.682 51.2738 108.864 51.9653 109.335 52.78C109.742 53.486 110.153 54.0092 110.675 54.2869C111.198 54.5647 111.649 54.5938 112.181 54.323C112.658 54.0837 112.913 53.6469 112.922 53.0985C112.931 52.55 112.749 51.8586 112.322 51.0554C111.914 50.3493 111.503 49.8261 111.024 49.5599C110.544 49.2937 110.05 49.2531 109.573 49.4925C109.096 49.7318 108.809 50.1143 108.746 50.694Z" fill="#313131"/>
<path d="M117.291 49.1275C117.611 49.305 118.005 49.5483 118.527 49.826C118.878 50.0578 119.112 50.2123 119.315 50.3126C119.518 50.4128 119.603 50.4357 119.701 50.4159L120.035 50.3677L120.212 50.7364L119.268 51.1723C119.16 51.235 118.988 51.1891 118.743 51.0774C118.497 50.9657 118.189 50.7454 117.764 50.4478C117.307 50.0959 116.913 49.8526 116.636 49.6866C116.36 49.5206 116.134 49.5061 115.983 49.5573L115.505 49.7967L116.534 51.9546L117.237 51.7297L117.413 52.0984L115.31 53.0957L115.133 52.727L115.731 52.3821L113.508 47.6548L112.86 47.8483L112.683 47.4796L114.732 46.5137L114.909 46.8824L114.3 47.2701L115.317 49.4708L115.957 49.1374L116.469 46.1987L115.766 46.4235L115.59 46.0548L117.476 45.183L117.653 45.5517L117.098 45.9081L116.477 48.9095C116.66 48.9126 116.96 48.9929 117.291 49.1275Z" fill="#313131"/>
<path d="M121.441 49.918C120.958 49.8346 120.564 49.5914 120.205 49.2196C119.845 48.8478 119.509 48.3904 119.261 47.7731C119.013 47.1558 118.882 46.6158 118.934 46.0788C118.986 45.5418 119.113 45.0707 119.41 44.6454C119.708 44.2202 120.111 43.915 120.577 43.7185C121.4 43.3881 122.088 43.3889 122.739 43.701C123.39 44.0132 123.906 44.6565 124.268 45.5339C124.516 46.1512 124.635 46.734 124.583 47.271C124.531 47.8079 124.393 48.322 124.096 48.7472C123.798 49.1725 123.395 49.4776 122.929 49.6742C122.397 49.9449 121.923 50.0015 121.441 49.918ZM119.818 45.3515C119.711 45.9198 119.851 46.5998 120.169 47.4657C120.511 48.2459 120.911 48.812 121.379 49.121C121.835 49.4729 122.329 49.5135 122.85 49.2856C123.358 49.1005 123.656 48.6753 123.762 48.107C123.869 47.5386 123.741 46.8158 123.368 45.9813C123.026 45.201 122.627 44.635 122.158 44.3259C121.69 44.0169 121.208 43.9334 120.688 44.1613C120.21 44.4007 119.924 44.7831 119.818 45.3515Z" fill="#313131"/>
<path d="M124.757 42.6806L124.077 42.8197L123.955 42.4197L125.027 42.0182C125.221 41.9784 125.438 41.853 125.698 41.739C125.958 41.6251 126.121 41.531 126.261 41.5226C126.976 41.255 127.547 41.1785 127.933 41.2818C128.318 41.3851 128.615 41.6483 128.769 42.1026C128.902 42.4599 128.939 42.837 128.804 43.1681C128.67 43.4993 128.449 43.8076 128.124 43.9957C128.632 43.8106 129.052 43.7854 129.438 43.8887C129.823 43.992 130.108 44.298 130.262 44.7524C130.447 45.2611 130.438 45.8095 130.183 46.2462C129.917 46.7258 129.351 47.125 128.485 47.4439C128.279 47.5265 128.128 47.5777 127.934 47.6175C127.533 47.7398 127.273 47.8538 127.176 47.8737L126.105 48.2752L125.971 47.9179L126.611 47.5845L124.757 42.6806ZM126.838 44.3398L127.292 44.1861C127.649 44.0523 127.889 43.8412 128.013 43.5528C128.136 43.2645 128.131 42.9417 127.954 42.573C127.82 42.2158 127.609 41.9756 127.363 41.8639C127.118 41.7522 126.741 41.7889 126.286 41.9426C126.081 42.0251 125.918 42.1192 125.712 42.2018L125.549 42.2959L126.383 44.4935C126.438 44.4622 126.589 44.4109 126.838 44.3398ZM128.266 47.0637C128.774 46.8787 129.123 46.6049 129.301 46.2852C129.478 45.9654 129.473 45.6427 129.319 45.1883C129.154 44.7768 128.943 44.5366 128.697 44.4249C128.409 44.3017 128.032 44.3384 127.566 44.5349C127.014 44.7085 126.7 44.8538 126.549 44.905L127.434 47.2541C127.551 47.3314 127.854 47.2289 128.266 47.0637Z" fill="#313131"/>
<path d="M137.163 38.0167L137.285 38.4167L136.645 38.7501L138.153 43.7451L138.93 43.586L139.053 43.9861L136.804 44.669L136.681 44.2689L137.31 43.9783L135.771 38.9291L133.176 39.7029L134.715 44.7522L135.493 44.5931L135.615 44.9932L133.366 45.676L133.244 45.276L133.873 44.9854L132.365 39.9904L131.642 40.1181L131.519 39.7181L137.163 38.0167Z" fill="#313131"/>
<path d="M140.679 43.2284C140.219 43.0593 139.837 42.7732 139.531 42.3701C139.226 41.967 138.998 41.4468 138.848 40.8096C138.697 40.1725 138.663 39.6126 138.77 39.0442C138.865 38.5188 139.119 38.082 139.448 37.7111C139.777 37.3401 140.212 37.0893 140.752 36.9585C141.595 36.7253 142.303 36.8233 142.92 37.2639C143.493 37.6931 143.912 38.3563 144.154 39.3392C144.305 39.9764 144.327 40.5791 144.232 41.1046C144.125 41.6729 143.871 42.1096 143.499 42.4691C143.127 42.8286 142.693 43.0794 142.195 43.2217C141.601 43.3838 141.138 43.3975 140.679 43.2284ZM139.716 38.4255C139.524 38.9709 139.566 39.6708 139.788 40.5565C139.978 41.388 140.323 41.9854 140.725 42.3687C141.128 42.7519 141.642 42.8896 142.139 42.7474C142.679 42.6167 142.996 42.2885 143.2 41.7004C143.392 41.155 143.361 40.4123 143.14 39.5265C142.949 38.695 142.604 38.0976 142.202 37.7144C141.8 37.3311 141.329 37.2049 140.789 37.3356C140.268 37.5635 139.897 37.923 139.716 38.4255Z" fill="#313131"/>
<path d="M146.955 39.6766C147.017 40.4737 146.954 41.0535 146.785 41.5132C146.727 41.7273 146.584 41.9185 146.464 42.0241C146.344 42.1296 146.181 42.2237 145.987 42.2634C145.738 42.3346 145.513 42.32 145.416 42.3399L145.222 41.6912C145.362 41.6828 145.556 41.6431 145.848 41.5834C145.945 41.5636 146.042 41.5437 146.108 41.4695C146.174 41.3953 146.239 41.3211 146.274 41.1926C146.566 40.4446 146.471 39.0876 146.053 37.0476L145.902 36.4104L144.911 36.5121L144.832 36.1235L149.592 35.1494L149.671 35.538L148.914 35.7942L149.968 40.9428L150.819 40.8496L150.898 41.2381L148.373 41.755L148.293 41.3664L149.148 41.0904L148.094 35.9417L146.443 36.2797L146.613 37.014C146.758 38.0168 146.882 38.9224 146.955 39.6766Z" fill="#313131"/>
<path d="M151.289 35.3286L150.6 35.3277L150.532 34.8963L154.761 34.193L155.105 35.4788L154.63 35.5354L154.246 34.7437L152.197 35.0211L152.577 37.3725L153.98 37.1057L153.981 36.4172L154.455 36.3607L154.767 38.2806L154.293 38.3372L154.068 37.6342L152.677 37.8582L153.065 40.3495L155.396 39.8724L155.652 38.7473L156.178 38.8422L156.196 40.3161L151.59 41.0562L151.511 40.6676L152.202 40.4856L151.289 35.3286Z" fill="#313131"/>
<path d="M158.234 34.2514L156.8 34.4639L156.737 36.2377L156.166 36.3141L156.032 34.0745L161.248 33.4523L161.62 35.6637L161.103 35.7088L160.605 33.9686L159.151 34.0839L159.804 39.3549L161.01 39.3107L161.035 39.7306L157.855 40.1181L157.83 39.6982L158.899 39.4795L158.234 34.2514Z" fill="#313131"/>
<path d="M165.121 36.6478L164.701 36.673C164.581 36.7785 164.438 36.9697 164.326 37.2152C164.203 37.5036 164.068 37.8348 163.954 38.2631C163.796 38.68 163.716 38.9798 163.615 39.1825C163.515 39.3852 163.438 39.5022 163.341 39.5221L162.209 39.6321L162.184 39.2122L162.487 39.1097C162.584 39.0899 162.65 39.0157 162.739 38.8558C162.828 38.696 162.939 38.4504 163.074 38.1192C163.22 37.7452 163.398 37.4255 163.509 37.18C163.664 36.9459 163.807 36.7547 163.97 36.6607C163.573 36.6002 163.253 36.4227 163.011 36.1282C162.768 35.8337 162.634 35.4765 162.609 35.0565C162.556 34.3995 162.736 33.897 163.085 33.6232C163.488 33.318 164.04 33.1444 164.782 33.1139C164.922 33.1055 165.159 33.0772 165.428 33.1032C165.708 33.0864 165.891 33.0895 166.031 33.0811L167.248 32.994L167.273 33.4139L166.593 33.5531L167.001 38.7124L167.775 38.7362L167.8 39.1561L165.312 39.3616L165.287 38.9417L166.107 38.7941L165.929 36.543L165.121 36.6478ZM165.465 33.4803C165.196 33.4543 165.002 33.4941 164.776 33.4795C164.356 33.5047 163.999 33.6385 163.813 33.8183C163.573 34.0294 163.481 34.372 163.538 34.8463C163.551 35.309 163.74 35.6349 163.951 35.8751C164.216 36.0839 164.559 36.1758 164.979 36.1506C165.441 36.1368 165.733 36.0772 165.873 36.0688L165.69 33.4949L165.465 33.4803Z" fill="#313131"/>
<path d="M170.298 33.2604L168.844 33.3757L168.599 35.1465L168.039 35.1801L168.099 32.9007L173.341 32.6984L173.518 34.9495L173.012 34.9518L172.654 33.2032L171.181 33.2214L171.36 38.549L172.542 38.5904L172.568 39.0103L169.371 39.1179L169.346 38.6979L170.434 38.5764L170.298 33.2604Z" fill="#313131"/>
<path d="M177.435 38.6619C177.01 38.3643 176.693 38.004 176.454 37.5267C176.214 37.0493 176.138 36.4779 176.127 35.8324C176.16 35.1983 176.309 34.6414 176.575 34.1619C176.841 33.6823 177.213 33.3228 177.69 33.0835C178.168 32.8441 178.665 32.7019 179.256 32.7226C179.665 32.7402 180.202 32.7922 180.801 32.9529L181.058 33.0218L180.925 34.547L180.377 34.5378L180.201 33.4807C180.127 33.4149 180.009 33.3376 179.795 33.2802C179.581 33.2228 179.355 33.2083 179.087 33.1822C178.721 33.1761 178.418 33.2786 178.135 33.4782C177.852 33.6778 177.632 33.986 177.443 34.3486C177.286 34.7654 177.171 35.1938 177.15 35.785C177.141 36.3335 177.197 36.8077 177.32 37.2078C177.442 37.6078 177.662 37.988 177.958 38.2511C178.255 38.5143 178.586 38.6489 178.995 38.6666C179.318 38.6612 179.5 38.6643 179.695 38.6246C179.846 38.5733 179.998 38.5221 180.118 38.4165L180.476 37.5943L181.001 37.6892L180.777 38.8687C180.637 38.8771 180.486 38.9283 180.248 38.9566C180.054 38.9963 179.848 39.0789 179.666 39.0759C179.471 39.1156 179.246 39.1011 178.966 39.1179C178.374 39.0972 177.86 38.9594 177.435 38.6619Z" fill="#313131"/>
<path d="M184.469 32.9716L184.451 33.3801L183.611 33.4305L183.303 37.6634L184.073 36.676L186.701 33.8912L186.716 33.6656L185.976 33.5133L185.994 33.1048L188.293 33.2618L188.276 33.6703L187.619 33.7238L187.272 38.9564L187.969 39.0972L187.952 39.5057L185.609 39.3372L185.627 38.9288L186.37 38.8982L186.646 34.611L185.942 35.5242L183.26 38.3403L183.222 38.6517L184.016 38.7726L183.999 39.181L181.614 39.0011L181.631 38.5926L182.331 38.5506L182.677 33.318L182.023 33.1886L182.041 32.7802L184.469 32.9716Z" fill="#313131"/>
<path d="M193.609 33.8138L193.432 36.016L192.852 35.9525L192.806 34.2414L190.95 33.9735L190.355 39.2773L191.803 39.5275L191.742 39.9245L188.446 39.5463L188.507 39.1494L189.421 39.1647L189.981 33.9895L189.125 33.7599L189.185 33.3629L193.609 33.8138Z" fill="#313131"/>
<path d="M195.028 34.5156L194.397 34.3006L194.457 33.9036L196.711 34.2319L196.65 34.6289L195.919 34.6166L195.591 36.87L198.498 37.3276L198.826 35.0743L198.153 34.8478L198.213 34.4508L200.466 34.7792L200.406 35.1761L199.718 35.1753L198.932 40.336L199.574 40.5082L199.514 40.9052L197.26 40.5768L197.321 40.1799L198.009 40.1807L198.383 37.756L195.476 37.2983L195.102 39.723L195.83 39.9181L195.769 40.3151L193.473 39.9753L193.534 39.5783L194.222 39.5791L195.028 34.5156Z" fill="#313131"/>
<path d="M203.511 35.4111L204.422 35.6093L205.266 41.7118L205.768 41.8923L205.708 42.2893L203.532 41.8439L203.592 41.447L204.312 41.5021L204.162 40.1765L201.772 39.6738L201.139 40.8356L201.813 41.0621L201.752 41.459L199.79 41.0711L199.851 40.6741L200.399 40.6833L203.511 35.4111ZM203.778 36.814L203.704 36.0598L203.381 36.7535L202.026 39.237L204.117 39.6594L203.778 36.814Z" fill="#313131"/>
<path d="M208.328 40.5584C208.048 41.2636 207.716 41.8173 207.398 42.1455C207.212 42.3252 207.049 42.4193 206.898 42.4705C206.746 42.5217 206.564 42.5187 206.35 42.4613C206.093 42.3924 205.878 42.335 205.761 42.2578L205.848 41.5923C205.976 41.6267 206.19 41.6841 206.447 41.753C206.533 41.7759 206.63 41.7561 206.727 41.7362C206.825 41.7163 206.89 41.6421 207.01 41.5366C207.568 40.9974 208.138 39.7269 208.635 37.7023L208.807 37.0598L207.907 36.8187L208.022 36.3904L212.757 37.5672L212.642 37.9956L211.837 37.9175L210.568 42.9948L211.359 43.2985L211.255 43.684L208.717 43.0497L208.82 42.6642L209.7 42.8081L210.968 37.7308L209.286 37.326L209.091 38.0541C208.893 38.9651 208.609 39.8532 208.328 40.5584Z" fill="#313131"/>
<path d="M215.573 40.9384C216.204 41.1534 216.672 41.4624 216.934 41.8541C217.197 42.2457 217.242 42.7628 217.05 43.3082C216.835 43.9392 216.494 44.353 216.028 44.5495C215.508 44.7774 214.96 44.7682 214.317 44.596C214.232 44.5731 214.146 44.5501 214.06 44.5272C213.975 44.5042 213.889 44.4813 213.772 44.404C213.484 44.2808 213.184 44.2005 212.938 44.0888L211.836 43.7475L211.939 43.362L212.636 43.5028L214.162 38.4944L213.554 38.1937L213.657 37.8082L215.947 38.5137L215.844 38.8992L215.007 38.7668L214.416 40.6285L215.573 40.9384ZM213.844 43.9642C213.93 43.9871 214.089 44.0759 214.261 44.1218C214.732 44.248 215.098 44.2542 215.423 44.066C215.749 43.8779 215.97 43.5697 216.096 43.0985C216.222 42.6273 216.217 42.3046 216.029 41.9787C215.872 41.7071 215.564 41.4868 215.104 41.3177L214.29 41.0997L213.47 43.8181C213.641 43.864 213.758 43.9412 213.844 43.9642ZM221.341 40.1426L221.238 40.5281L220.444 40.4072L218.918 45.4156L219.655 45.7507L219.551 46.1362L217.176 45.4078L217.279 45.0223L218.061 45.1861L219.587 40.1777L218.851 39.8426L218.954 39.4571L221.341 40.1426Z" fill="#313131"/>
<path d="M224.806 41.9436L224.21 41.6001L224.356 41.2261L226.483 42.0256L226.337 42.3996L225.64 42.2588L224.841 44.386L227.63 45.4548L228.43 43.3276L227.833 42.9842L227.979 42.6101L230.106 43.4096L229.96 43.7837L229.306 43.6543L227.438 48.571L228.046 48.8716L227.9 49.2456L225.773 48.4461L225.919 48.0721L226.604 48.2557L227.492 45.9688L224.703 44.9L223.815 47.1869L224.454 47.5419L224.308 47.9159L222.15 47.0621L222.296 46.6881L222.981 46.8717L224.806 41.9436Z" fill="#313131"/>
<path d="M232.915 44.5756L233.78 44.9452L233.322 51.1118L233.747 51.4093L233.601 51.7834L231.551 50.8668L231.697 50.4928L232.371 50.7193L232.544 49.3884L230.28 48.4144L229.425 49.3789L230.064 49.7339L229.918 50.1079L228.071 49.2916L228.217 48.9176L228.731 49.0553L232.915 44.5756ZM232.891 46.0381L233 45.287L232.517 45.892L230.663 48.0121L232.639 48.8629L232.891 46.0381Z" fill="#313131"/>
<path d="M239.095 48.0679L238.319 47.5385L238.508 47.176L240.481 48.2095L239.802 52.1135L239.558 53.1959L240.281 52.3798L243.061 49.5438L245.034 50.5773L244.845 50.9399L243.968 50.6132L242.143 55.5413L242.759 55.9819L242.57 56.3445L240.438 55.2222L240.627 54.8596L241.332 55.1404L242.736 51.6143L243.332 50.0754L242.445 50.9855L239.185 54.2437L238.706 53.9775L239.379 49.7507L239.675 48.1315L238.802 49.5044L236.748 52.7183L237.45 53.1819L237.261 53.5445L235.331 52.5224L235.52 52.1598L236.182 52.4291L239.095 48.0679Z" fill="#313131"/>
<path d="M247.826 52.1517L248.614 52.6383L247.447 58.7069L247.872 59.0045L247.683 59.367L245.776 58.2593L245.965 57.8967L246.628 58.166L246.918 56.9124L244.82 55.6616L243.847 56.5488L244.421 56.978L244.232 57.3405L242.528 56.333L242.717 55.9704L243.22 56.151L247.826 52.1517ZM247.63 53.5683L247.825 52.8401L247.268 53.3793L245.149 55.2907L247.013 56.3869L247.63 53.5683Z" fill="#313131"/>
<path d="M251.553 55.0325L251.076 54.5835L251.308 54.2324L252.244 54.8505C252.404 54.9393 252.595 55.0823 252.755 55.1711C253.032 55.3371 253.277 55.4488 253.511 55.6033C254.171 56.0554 254.604 56.493 254.715 56.9359C254.826 57.3788 254.743 57.8614 254.434 58.3295C254.19 58.7234 253.896 58.9658 253.527 59.1425C253.159 59.3192 252.781 59.3558 252.384 59.2954C251.987 59.2349 251.571 59.0773 251.177 58.834C251.017 58.7453 250.9 58.668 250.751 58.5365C250.592 58.4477 250.517 58.3819 250.486 58.3276L249.47 59.8918L250.383 60.5955L250.152 60.9466L247.842 59.4556L248.074 59.1046L248.725 59.4167L251.553 55.0325ZM251.408 58.483C251.802 58.7263 252.145 58.8181 252.534 58.7385C252.922 58.659 253.271 58.3852 253.603 57.8315C253.846 57.4376 253.95 57.0521 253.847 56.7492C253.745 56.4462 253.502 56.1517 253.077 55.8542C252.917 55.7654 252.757 55.6767 252.555 55.5765C252.438 55.4992 252.352 55.4762 252.352 55.4762L250.718 57.9765C250.866 58.1081 251.057 58.2512 251.408 58.483Z" fill="#313131"/>
<path d="M253.54 62.8645C253.344 62.3986 253.299 61.8816 253.382 61.3989C253.466 60.9163 253.712 60.3396 254.087 59.7973C254.45 59.2978 254.876 58.907 255.354 58.6676C255.831 58.4283 256.359 58.3403 256.896 58.3924C257.433 58.4445 257.936 58.625 258.393 58.9769C258.744 59.2087 259.146 59.592 259.537 60.018L259.759 60.2154L258.804 61.3826L258.336 61.0735L258.783 60.0914C258.763 59.9943 258.657 59.8742 258.563 59.7112C258.469 59.5483 258.235 59.3938 258.001 59.2392C257.693 59.0189 257.393 58.9386 257.027 58.9324C256.662 58.9263 256.304 59.0601 255.967 59.2911C255.63 59.5221 255.258 59.8815 254.96 60.3068C254.663 60.732 254.451 61.1803 254.293 61.5971C254.178 62.0255 254.118 62.4224 254.24 62.8225C254.363 63.2225 254.562 63.5056 254.913 63.7374C255.147 63.8919 255.339 64.0349 255.51 64.0808C255.681 64.1268 255.81 64.1612 255.95 64.1528L256.722 63.671L257.124 64.0542L256.249 64.9215C256.132 64.8443 255.96 64.7984 255.758 64.6981C255.544 64.6408 255.384 64.552 255.17 64.4946C255.01 64.4059 254.807 64.3057 254.573 64.1511C254.128 63.7564 253.737 63.3303 253.54 62.8645Z" fill="#313131"/>
<path d="M265.827 64.6417L265.552 64.9813L264.85 64.5177L262.181 67.7966L263.381 67.4296L267.115 66.6856L267.258 66.4944L266.762 65.9482L267.037 65.6086L268.84 67.1019L268.566 67.4415L267.969 67.098L264.631 71.1616L265.138 71.665L264.875 71.9617L263.072 70.4685L263.335 70.1717L263.963 70.5695L266.686 67.2593L265.583 67.6064L261.752 68.3703L261.554 68.5928L262.094 69.1505L261.83 69.4472L259.984 67.9425L260.247 67.6458L260.832 68.0321L264.171 63.9685L263.706 63.4766L263.98 63.137L265.827 64.6417Z" fill="#313131"/>
<path d="M270.099 68.4031C270.344 68.5148 270.493 68.6463 270.653 68.7351C270.812 68.8238 270.961 68.9554 271.078 69.0327C271.597 69.4932 271.934 69.9506 272.045 70.3935C272.155 70.8364 272.052 71.2219 271.735 71.55C271.417 71.8781 271.091 72.0663 270.683 72.0486C270.306 72.0853 269.92 71.982 269.569 71.7502C269.929 72.122 270.148 72.5022 270.185 72.8793C270.222 73.2564 270.075 73.6304 269.812 73.9272C269.418 74.3723 268.94 74.6117 268.446 74.5711C267.941 74.5733 267.418 74.2956 266.782 73.7578C266.516 73.549 266.348 73.3203 266.18 73.0916C266.012 72.8628 265.918 72.6999 265.812 72.5798C265.749 72.4712 265.687 72.3626 265.655 72.3083L266.748 71.3155L267.044 71.5787L266.512 72.5378C266.614 72.8407 266.857 73.1352 267.185 73.4527C267.482 73.7158 267.727 73.8275 268.061 73.7794C268.353 73.7197 268.667 73.5744 268.942 73.2348C269.194 72.9809 269.274 72.6811 269.311 72.3698C269.349 72.0585 269.118 71.7211 268.747 71.3922L268.302 70.9975L268.619 70.6693L268.99 70.9983C269.182 71.1413 269.373 71.2844 269.587 71.3418C269.801 71.3992 270.027 71.4137 270.275 71.3426C270.524 71.2715 270.698 71.1346 270.896 70.912C271.159 70.6152 271.271 70.3697 271.211 70.0783C271.194 69.7983 271.026 69.5696 270.729 69.3065C270.549 69.1206 270.389 69.0318 270.187 68.9316C270.027 68.8429 269.887 68.8513 269.79 68.8712L269.158 69.3446L268.744 69.0042L269.568 67.9854C269.705 68.1598 269.865 68.2485 270.099 68.4031Z" fill="#313131"/>
<path d="M275.119 73.6507L274.72 73.0847L275.026 72.7994L275.819 73.6087C275.968 73.7403 276.147 73.9262 276.37 74.1235C276.593 74.3209 276.741 74.4525 276.815 74.5183C277.354 75.0759 277.691 75.5334 277.716 75.9533C277.796 76.3419 277.649 76.7159 277.332 77.044C277.026 77.3293 276.712 77.4746 276.377 77.5228C276.043 77.5709 275.658 77.4676 275.307 77.2358C275.709 77.6191 275.928 77.9992 275.954 78.4192C275.979 78.8391 275.844 79.1703 275.527 79.4984C275.143 79.9007 274.635 80.0858 274.141 80.0452C273.604 79.9931 273.007 79.6497 272.351 79.0147C272.202 78.8832 272.066 78.7087 271.96 78.5886C271.675 78.2827 271.495 78.0968 271.421 78.031L270.628 77.2217L270.934 76.9364L271.507 77.3655L275.119 73.6507ZM272.625 78.6751C273.028 79.0584 273.379 79.2902 273.744 79.2963C274.11 79.3025 274.424 79.1572 274.73 78.8719C275.036 78.5866 275.171 78.2554 275.154 77.9755C275.137 77.6955 274.949 77.3697 274.59 76.9979C274.188 76.6146 273.934 76.363 273.828 76.2429L272.066 78.0203C272.086 78.1175 272.309 78.3148 272.625 78.6751ZM274.528 76.2008L274.856 76.5183C275.153 76.7815 275.43 76.9475 275.71 76.9307C275.99 76.9139 276.304 76.7686 276.567 76.4718C276.83 76.175 276.985 75.941 276.968 75.661C276.951 75.3811 276.763 75.0552 276.435 74.7378C276.287 74.6062 276.138 74.4746 275.947 74.3315L275.799 74.2L274.157 75.8719C274.243 75.8949 274.348 76.015 274.528 76.2008Z" fill="#313131"/>
<path d="M280.664 78.4876L281.309 79.1654L278.431 84.5921L278.725 85.0381L278.419 85.3233L276.93 83.6848L277.236 83.3995L277.755 83.86L278.431 82.7097L276.762 80.8853L275.559 81.4351L276.001 82.0126L275.695 82.2979L274.343 80.8338L274.649 80.5485L275.062 80.8889L280.664 78.4876ZM279.997 79.7779L280.406 79.1072L279.711 79.472L277.142 80.6658L278.6 82.25L279.997 79.7779Z" fill="#313131"/>
<path d="M279.512 86.2132C279.424 85.6847 279.508 85.202 279.731 84.711C279.954 84.22 280.306 83.7633 280.83 83.3526C281.31 82.9304 281.83 82.7025 282.37 82.5718C282.91 82.441 283.447 82.4931 283.95 82.6737C284.452 82.8542 284.877 83.1518 285.257 83.6207C285.531 83.9695 285.824 84.4155 286.095 84.9471L286.209 85.2072L285 86.1227L284.652 85.7081L285.344 84.8377C285.324 84.7405 285.316 84.6006 285.221 84.4376C285.127 84.2747 285.002 84.0575 284.822 83.8716C284.58 83.5771 284.303 83.4111 283.96 83.3192C283.618 83.2274 283.24 83.2641 282.84 83.3865C282.44 83.5088 282.006 83.7597 281.591 84.1076C281.177 84.4556 280.848 84.8266 280.616 85.1777C280.373 85.5716 280.269 85.9571 280.263 86.3227C280.257 86.6883 280.391 87.0455 280.665 87.3943C280.876 87.6345 281.024 87.7661 281.184 87.8549C281.344 87.9436 281.461 88.0209 281.601 88.0125L282.455 87.7364L282.749 88.1824L281.706 88.821C281.631 88.7552 281.483 88.6236 281.292 88.4806C281.089 88.3803 280.941 88.2488 280.792 88.1172C280.644 87.9856 280.453 87.8426 280.285 87.6138C279.839 87.2191 279.6 86.7418 279.512 86.2132Z" fill="#313131"/>
<path d="M288.086 89.3369C288.604 89.2919 289.043 89.3638 289.46 89.5214C289.877 89.679 290.248 90.0079 290.522 90.3568C290.858 90.8142 291.024 91.2257 291.08 91.7C291.094 92.1627 291.022 92.6026 290.767 93.0393C290.512 93.476 290.172 93.8898 289.66 94.2577C289.137 94.6684 288.563 94.9276 288.022 95.0584C287.482 95.1891 286.988 95.1486 286.486 94.968C285.983 94.7874 285.644 94.5128 285.339 94.1097C285.002 93.6522 284.805 93.1864 284.749 92.7122C284.692 92.2379 284.807 91.8096 285.019 91.3614C285.274 90.9246 285.614 90.5109 286.083 90.1315L285.273 89.0422L283.312 90.5367L283.688 91.1884L283.351 91.4194L281.962 89.5781L282.299 89.3472L282.807 89.8505L286.958 86.6933L286.614 86.0959L286.962 85.8221L288.32 87.609L287.971 87.8829L287.463 87.3795L285.676 88.7371L286.486 89.8263C287.104 89.5786 287.601 89.4363 288.086 89.3369ZM288.817 90.0377C288.257 90.0713 287.585 90.3504 286.833 90.9294C286.19 91.4456 285.741 91.9221 285.549 92.4675C285.357 93.0128 285.414 93.4871 285.75 93.9445C286.098 94.3591 286.503 94.5595 287.075 94.4831C287.635 94.4495 288.275 94.1161 289.015 93.5799C289.659 93.0637 290.108 92.5872 290.3 92.0418C290.492 91.4965 290.435 91.0222 290.13 90.6191C289.825 90.216 289.377 90.004 288.817 90.0377Z" fill="#313131"/>
<path d="M291.67 98.2391C291.578 98.5818 291.366 99.03 291.131 99.5639C290.942 99.9265 290.862 100.226 290.773 100.386C290.727 100.557 290.681 100.729 290.712 100.783L290.815 101.086L290.478 101.317L289.879 100.468C289.816 100.359 289.819 100.176 289.931 99.931C290.042 99.6854 290.189 99.3114 290.401 98.8632C290.678 98.3408 290.836 97.9239 290.959 97.6356C291.082 97.3472 291.054 97.1101 291.003 96.9586L290.709 96.5127L288.739 97.8672L289.061 98.5502L288.724 98.7812L287.444 96.8773L287.781 96.6463L288.234 97.181L292.554 94.2526L292.264 93.6238L292.601 93.3928L293.85 95.2425L293.512 95.4734L293.059 94.9387L291.046 96.2817L291.434 96.8906L294.402 96.9513L294.068 96.311L294.406 96.0801L295.549 97.8096L295.212 98.0406L294.747 97.5487L291.705 97.4222C291.787 97.628 291.761 97.8965 291.67 98.2391Z" fill="#313131"/>
<path d="M291.501 102.464C291.53 102.012 291.656 101.541 291.997 101.127C292.294 100.702 292.72 100.311 293.264 99.9978C293.818 99.6414 294.37 99.4678 294.887 99.4228C295.447 99.3891 295.929 99.4726 296.378 99.6845C296.826 99.8964 297.197 100.225 297.479 100.714C297.918 101.474 298.057 102.154 297.819 102.871C297.593 103.545 297.066 104.139 296.24 104.652C295.686 105.008 295.134 105.182 294.563 105.258C294.003 105.292 293.52 105.208 293.029 104.985C292.581 104.773 292.221 104.401 291.928 103.955C291.614 103.412 291.515 102.926 291.501 102.464ZM295.8 100.127C295.252 100.117 294.549 100.342 293.777 100.824C293.059 101.274 292.567 101.739 292.332 102.273C292.055 102.796 292.111 103.27 292.394 103.759C292.687 104.205 293.124 104.459 293.672 104.469C294.264 104.489 294.924 104.253 295.696 103.771C296.413 103.321 296.905 102.856 297.14 102.322C297.363 101.831 297.361 101.325 297.079 100.836C296.785 100.391 296.391 100.147 295.8 100.127Z" fill="#313131"/>
<path d="M299.177 104.658L298.941 103.998L299.321 103.778L299.886 104.756C299.98 104.919 300.105 105.136 300.273 105.365C300.442 105.594 300.536 105.756 300.598 105.865C300.963 106.56 301.148 107.068 301.076 107.508C301.004 107.948 300.796 108.213 300.404 108.476C300.078 108.664 299.689 108.743 299.335 108.694C298.981 108.645 298.661 108.468 298.388 108.119C298.67 108.608 298.749 108.996 298.677 109.436C298.617 109.833 298.354 110.13 297.974 110.349C297.485 110.632 296.968 110.677 296.465 110.496C295.963 110.316 295.498 109.824 295.027 109.009C294.933 108.846 294.851 108.64 294.757 108.477C294.537 108.097 294.423 107.837 294.392 107.783L293.827 106.805L294.196 106.629L294.595 107.195L299.177 104.658ZM295.365 108.778C295.647 109.267 295.932 109.573 296.275 109.665C296.617 109.757 296.952 109.708 297.332 109.489C297.712 109.269 297.921 109.004 297.99 108.747C298.059 108.49 297.979 108.101 297.728 107.667C297.446 107.178 297.258 106.852 297.195 106.744L294.991 107.944C295.031 108.138 295.145 108.398 295.365 108.778ZM297.881 106.927L298.089 107.35C298.277 107.676 298.542 107.885 298.799 107.954C299.099 108.034 299.39 107.975 299.771 107.755C300.096 107.567 300.294 107.344 300.363 107.087C300.432 106.83 300.341 106.485 300.09 106.05C299.996 105.887 299.859 105.713 299.776 105.507L299.682 105.344L297.63 106.493C297.692 106.601 297.755 106.71 297.881 106.927Z" fill="#313131"/>
<path d="M305.738 116.149L305.37 116.326L304.982 115.717L300.286 117.994L300.542 118.751L300.173 118.928L299.145 116.77L299.513 116.593L299.901 117.202L304.64 114.937L303.455 112.507L298.704 114.815L298.961 115.573L298.592 115.749L297.552 113.634L297.92 113.458L298.277 114.012L302.973 111.735L302.748 111.033L303.117 110.856L305.738 116.149Z" fill="#313131"/>
<path d="M301.095 120.46C301.178 119.977 301.421 119.583 301.75 119.212C302.122 118.853 302.58 118.516 303.154 118.257C303.729 117.998 304.311 117.878 304.848 117.93C305.385 117.982 305.856 118.109 306.282 118.406C306.707 118.704 307.012 119.107 307.209 119.573C307.539 120.396 307.581 121.096 307.226 121.735C306.914 122.386 306.271 122.902 305.393 123.264C304.776 123.512 304.193 123.631 303.656 123.579C303.119 123.527 302.605 123.389 302.18 123.092C301.755 122.794 301.45 122.391 301.21 121.914C301.068 121.416 300.98 120.888 301.095 120.46ZM305.673 118.794C305.104 118.688 304.425 118.827 303.547 119.189C302.767 119.53 302.201 119.93 301.892 120.398C301.583 120.866 301.499 121.348 301.727 121.869C301.955 122.389 302.338 122.675 302.906 122.781C303.474 122.888 304.197 122.76 305.032 122.387C305.812 122.045 306.378 121.646 306.687 121.178C306.996 120.709 307.037 120.215 306.851 119.707C306.624 119.186 306.241 118.9 305.673 118.794Z" fill="#313131"/>
<path d="M305.561 126.064C304.784 126.223 304.17 126.288 303.73 126.216C303.516 126.158 303.301 126.101 303.196 125.981C303.048 125.849 302.942 125.729 302.859 125.523C302.745 125.263 302.706 125.069 302.697 124.929L303.326 124.639C303.334 124.779 303.417 124.984 303.531 125.244C303.551 125.341 303.625 125.407 303.699 125.473C303.773 125.539 303.859 125.562 303.988 125.596C304.77 125.76 306.13 125.482 308.025 124.75L308.642 124.502L308.389 123.562L308.801 123.397L310.52 127.944L310.109 128.109L309.744 127.414L304.84 129.268L305.042 130.056L304.642 130.179L303.737 127.733L304.137 127.61L304.521 128.402L309.425 126.548L308.839 124.968L308.124 125.236C307.181 125.671 306.338 125.905 305.561 126.064Z" fill="#313131"/>
<path d="M310.556 129.697L310.416 129.017L310.816 128.895L312.157 132.973L310.965 133.48L310.811 133.026L311.498 132.521L310.886 130.521L308.626 131.246L309.098 132.566L309.809 132.482L309.963 132.936L308.103 133.539L307.949 133.085L308.589 132.752L308.171 131.4L305.802 132.188L306.625 134.429L307.796 134.513L307.798 135.019L306.321 135.22L304.847 130.785L305.247 130.662L305.538 131.291L310.556 129.697Z" fill="#313131"/>
<path d="M312.713 136.381L312.252 135.018L310.452 135.225L310.321 134.685L312.513 134.216L313.955 139.285L311.792 139.991L311.649 139.494L313.276 138.736L312.923 137.31L307.811 138.741L308.05 139.906L307.65 140.029L306.776 136.948L307.176 136.826L307.547 137.843L312.713 136.381Z" fill="#313131"/>
<path d="M311.387 143.555L311.307 143.167C311.202 143.047 310.988 142.989 310.688 142.909C310.388 142.829 310.034 142.78 309.594 142.708C309.154 142.636 308.854 142.555 308.64 142.498C308.426 142.441 308.309 142.363 308.289 142.266L308.039 141.143L308.428 141.064L308.573 141.378C308.604 141.432 308.721 141.51 308.881 141.598C309.052 141.644 309.309 141.713 309.641 141.848C310.026 141.951 310.369 142.043 310.669 142.123C310.914 142.235 311.117 142.335 311.265 142.467C311.283 142.058 311.418 141.727 311.626 141.462C311.89 141.165 312.215 140.977 312.604 140.897C313.241 140.747 313.767 140.842 314.095 141.159C314.423 141.477 314.694 142.008 314.864 142.743C314.915 142.894 314.944 143.131 314.972 143.368C314.989 143.648 315.028 143.842 315.08 143.994L315.361 145.171L314.961 145.293L314.682 144.622L309.584 145.827L309.701 146.593L309.324 146.629L308.729 144.221L309.118 144.141L309.374 144.898L311.534 144.375L311.387 143.555ZM314.54 143.436C314.512 143.199 314.484 142.962 314.444 142.768C314.333 142.325 314.176 142.053 313.954 141.856C313.731 141.659 313.366 141.652 312.923 141.763C312.48 141.874 312.154 142.062 311.988 142.339C311.822 142.616 311.773 142.97 311.884 143.413C311.995 143.856 312.054 144.147 312.117 144.256L314.623 143.642L314.54 143.436Z" fill="#313131"/>
<path d="M315.526 148.154L315.217 146.739L313.408 146.806L313.32 146.277L315.552 146.003L316.562 151.14L314.36 151.651L314.272 151.123L315.949 150.516L315.737 149.082L310.514 150.07L310.655 151.256L310.267 151.335L309.642 148.184L310.03 148.104L310.346 149.153L315.526 148.154Z" fill="#313131"/>
<path d="M311.307 156.021C311.519 155.573 311.859 155.159 312.294 154.908C312.74 154.614 313.291 154.441 313.917 154.333C314.531 154.268 315.122 154.289 315.613 154.512C316.116 154.693 316.53 155.033 316.878 155.448C317.226 155.862 317.411 156.371 317.487 156.942C317.555 157.374 317.558 157.879 317.483 158.502L317.456 158.77L315.96 158.874L315.883 158.303L316.9 157.933C316.966 157.859 317.012 157.687 317.015 157.504C317.018 157.322 317.044 157.053 316.973 156.805C316.925 156.47 316.78 156.156 316.526 155.904C316.272 155.653 315.952 155.475 315.524 155.36C315.096 155.245 314.633 155.259 314.073 155.293C313.544 155.381 313.101 155.492 312.678 155.7C312.255 155.908 311.961 156.15 311.741 156.458C311.52 156.767 311.46 157.164 311.496 157.541C311.556 157.832 311.584 158.069 311.678 158.232C311.73 158.384 311.835 158.504 311.941 158.624L312.797 158.853L312.788 159.402L311.563 159.349C311.543 159.252 311.503 159.057 311.378 158.84C311.295 158.634 311.201 158.472 311.161 158.277C311.122 158.083 311.039 157.877 311.022 157.597C311.031 157.049 311.084 156.512 311.307 156.021Z" fill="#313131"/>
<path d="M318.024 162.136L317.604 162.161L317.413 161.33L313.18 161.71L314.256 162.32L317.447 164.461L317.684 164.432L317.708 163.658L318.128 163.633L318.336 165.938L317.916 165.964L317.766 165.326L312.541 165.809L312.528 166.54L312.108 166.565L311.911 164.217L312.331 164.192L312.502 164.926L316.778 164.557L315.733 164.001L312.511 161.807L312.231 161.823L312.207 162.598L311.787 162.623L311.59 160.275L312.01 160.249L312.149 160.929L317.374 160.447L317.418 159.77L317.838 159.745L318.024 162.136Z" fill="#313131"/>
<path d="M318.6 171.289L316.404 171.435L316.37 170.875L318.064 170.548L318.052 168.709L312.756 168.942L312.731 170.405L312.312 170.43L312.141 167.125L312.561 167.1L312.686 168.005L317.896 167.749L317.955 166.846L318.374 166.821L318.6 171.289Z" fill="#313131"/>
<path d="M318.113 172.765L318.2 172.1L318.608 172.117L318.591 174.408L318.183 174.391L318.098 173.679L315.85 173.674L315.832 176.653L318.08 176.658L318.167 175.993L318.575 176.011L318.57 178.259L318.161 178.241L318.065 177.573L312.826 177.592L312.74 178.257L312.331 178.24L312.337 175.992L312.745 176.009L312.83 176.721L315.261 176.729L315.279 173.75L312.848 173.741L312.75 174.45L312.341 174.432L312.316 172.13L312.724 172.147L312.82 172.816L318.113 172.765Z" fill="#313131"/>
<path d="M318.584 181.292L318.569 182.206L312.676 183.979L312.581 184.504L312.173 184.487L312.264 182.262L312.673 182.279L312.715 182.979L314 182.635L314.106 180.184L312.898 179.723L312.801 180.431L312.392 180.414L312.469 178.414L312.877 178.432L312.922 178.949L318.584 181.292ZM317.209 181.796L317.944 181.626L317.184 181.376L314.512 180.385L314.401 182.513L317.209 181.796Z" fill="#313131"/>
<path d="M314.24 186.877C313.469 186.671 312.924 186.478 312.541 186.192C312.35 186.049 312.202 185.918 312.15 185.766C312.056 185.603 312.059 185.421 312.062 185.238C312.088 184.969 312.092 184.786 312.169 184.669L312.857 184.67C312.823 184.799 312.808 185.024 312.782 185.293C312.759 185.379 312.779 185.476 312.842 185.584C312.862 185.681 312.936 185.747 313.053 185.825C313.658 186.308 315.04 186.632 317.059 186.806L317.736 186.85L317.903 185.885L318.312 185.902L317.886 190.746L317.477 190.729L317.458 189.943L312.26 189.468L312.085 190.294L311.677 190.276L311.914 187.677L312.322 187.695L312.318 188.566L317.517 189.041L317.653 187.333L316.89 187.266C315.859 187.173 314.98 187.029 314.24 186.877Z" fill="#313131"/>
<path d="M314.98 194.053C314.893 194.719 314.658 195.253 314.255 195.558C313.895 195.875 313.409 195.974 312.83 195.91C312.207 195.835 311.739 195.526 311.445 195.08C311.151 194.634 311.075 194.063 311.161 193.398C311.184 193.312 311.207 193.226 311.188 193.129C311.168 193.032 311.233 192.958 311.268 192.829C311.348 192.529 311.386 192.218 311.455 191.961L311.624 190.813L312.021 190.873L312.009 191.605L317.224 192.359L317.451 191.686L317.848 191.746L317.485 194.128L317.088 194.067L317.037 193.228L315.095 192.937L314.98 194.053ZM311.719 192.858C311.696 192.944 311.65 193.115 311.647 193.298C311.564 193.781 311.655 194.127 311.897 194.421C312.14 194.716 312.459 194.893 312.954 194.934C313.393 195.006 313.782 194.926 314.022 194.715C314.305 194.515 314.44 194.184 314.523 193.702L314.656 192.865L311.822 192.473C311.777 192.644 311.742 192.773 311.719 192.858ZM316.65 199.643L316.253 199.582L316.277 198.808L311.104 198.065L310.898 198.836L310.501 198.776L310.832 196.339L311.229 196.4L311.206 197.174L316.378 197.917L316.584 197.146L316.981 197.207L316.65 199.643Z" fill="#313131"/>
<path d="M315.383 203.343L315.641 202.724L316.026 202.827L315.515 205.077L315.129 204.974L315.185 204.254L312.977 203.755L312.337 206.659L314.544 207.159L314.802 206.539L315.187 206.642L314.688 208.85L314.302 208.746L314.346 208.069L309.223 206.972L309.008 207.603L308.622 207.5L309.122 205.292L309.507 205.396L309.464 206.073L311.854 206.575L312.495 203.671L310.104 203.168L309.866 203.885L309.481 203.782L309.992 201.532L310.377 201.635L310.334 202.312L315.383 203.343Z" fill="#313131"/>
<path d="M314.017 211.7L313.776 212.599L307.656 213.163L307.433 213.654L307.047 213.551L307.578 211.398L307.964 211.501L307.866 212.209L309.169 212.145L309.757 209.778L308.649 209.114L308.38 209.776L307.995 209.673L308.468 207.734L308.854 207.837L308.802 208.374L314.017 211.7ZM312.594 211.869L313.379 211.85L312.697 211.484L310.291 210.013L309.783 212.08L312.594 211.869Z" fill="#313131"/>
<path d="M311.526 218.424L311.939 217.57L312.313 217.716L311.61 219.824L307.643 219.725L306.557 219.663L307.505 220.239L310.736 222.573L310.033 224.681L309.659 224.535L309.858 223.624L304.669 222.6L304.356 223.251L303.982 223.105L304.742 220.784L305.116 220.93L304.964 221.67L308.682 222.528L310.29 222.867L309.248 222.129L305.529 219.388L305.71 218.885L309.98 218.882L311.669 218.921L310.153 218.239L306.661 216.707L306.314 217.486L305.94 217.34L306.631 215.276L307.005 215.422L306.864 216.119L311.526 218.424Z" fill="#313131"/>
<path d="M308.853 227.715L308.526 228.592L302.388 228.37L302.133 228.807L301.759 228.661L302.59 226.588L302.964 226.734L302.78 227.42L304.091 227.495L304.979 225.208L303.961 224.385L303.606 225.024L303.232 224.878L303.962 223.008L304.336 223.154L304.241 223.679L308.853 227.715ZM307.39 227.691L308.153 227.757L307.536 227.317L305.35 225.537L304.585 227.536L307.39 227.691Z" fill="#313131"/>
<path d="M306.568 231.786L306.943 231.244L307.317 231.39L306.859 232.415C306.759 232.617 306.713 232.789 306.624 232.949C306.501 233.237 306.432 233.494 306.32 233.74C305.985 234.476 305.633 234.933 305.21 235.141C304.799 235.306 304.336 235.32 303.759 235.073C303.354 234.873 303.046 234.653 302.815 234.315C302.584 233.978 302.493 233.632 302.468 233.212C302.442 232.792 302.557 232.364 302.758 231.959C302.846 231.799 302.881 231.67 302.97 231.51C303.058 231.35 303.081 231.265 303.136 231.233L301.448 230.506L300.904 231.508L300.53 231.362L301.659 228.864L302.033 229.01L301.806 229.684L306.568 231.786ZM303.163 232.159C302.963 232.564 302.956 232.93 303.079 233.33C303.201 233.73 303.541 234.005 304.117 234.251C304.566 234.463 304.931 234.469 305.191 234.355C305.506 234.21 305.726 233.902 305.938 233.453C306.027 233.294 306.073 233.122 306.13 232.908C306.165 232.78 306.187 232.694 306.199 232.651L303.444 231.454C303.409 231.582 303.298 231.828 303.163 232.159Z" fill="#313131"/>
<path d="M299.147 234.985C299.581 234.734 300.078 234.592 300.584 234.59C301.132 234.599 301.689 234.748 302.255 235.037C302.82 235.326 303.276 235.678 303.57 236.124C303.907 236.582 304.049 237.079 304.094 237.596C304.139 238.113 304.044 238.639 303.766 239.161C303.566 239.566 303.268 239.992 302.905 240.491L302.75 240.725L301.429 240.004L301.652 239.513L302.723 239.8C302.82 239.78 302.94 239.674 303.072 239.526C303.203 239.377 303.304 239.175 303.458 238.941C303.636 238.621 303.673 238.31 303.594 237.921C303.545 237.587 303.357 237.261 303.084 236.912C302.798 236.606 302.416 236.32 301.893 236.042C301.402 235.819 300.943 235.65 300.503 235.578C300.063 235.506 299.643 235.531 299.274 235.708C298.917 235.842 298.666 236.096 298.465 236.501C298.342 236.789 298.242 236.992 298.239 237.175C298.193 237.346 298.201 237.486 298.252 237.638L298.854 238.304L298.557 238.729L297.558 238.002C297.592 237.874 297.638 237.703 297.696 237.488C297.753 237.274 297.756 237.091 297.813 236.877C297.859 236.706 297.971 236.46 298.083 236.215C298.36 235.692 298.701 235.279 299.147 234.985Z" fill="#313131"/>
<path d="M299.314 247.379L298.963 247.148L299.309 246.368L295.656 244.241L296.186 245.348L297.512 248.963L297.715 249.063L298.199 248.458L298.55 248.69L297.376 250.671L297.025 250.439L297.283 249.819L292.756 247.183L292.327 247.757L291.964 247.568L293.149 245.544L293.512 245.733L293.188 246.427L296.873 248.608L296.32 247.587L295.005 243.929L294.728 243.763L294.233 244.411L293.87 244.222L295.067 242.155L295.429 242.344L295.16 243.007L299.687 245.643L300.105 245.112L300.456 245.344L299.314 247.379Z" fill="#313131"/>
<path d="M296.287 252.169C296.175 252.414 296.117 252.629 296.029 252.789C295.94 252.948 295.851 253.108 295.774 253.225C295.388 253.81 295.004 254.213 294.593 254.378C294.181 254.543 293.773 254.525 293.379 254.282C292.985 254.039 292.797 253.713 292.717 253.324C292.638 252.936 292.687 252.582 292.845 252.165C292.547 252.59 292.198 252.864 291.81 252.943C291.421 253.023 291.067 252.974 290.716 252.742C290.205 252.422 289.9 252.018 289.855 251.501C289.798 251.027 289.959 250.428 290.422 249.725C290.588 249.448 290.786 249.226 290.983 249.003C291.169 248.824 291.343 248.687 291.463 248.581C291.583 248.476 291.649 248.401 291.692 248.413L292.828 249.314L292.596 249.665L291.56 249.25C291.288 249.406 291.037 249.66 290.739 250.086C290.519 250.394 290.481 250.705 290.541 250.997C290.6 251.288 290.854 251.54 291.248 251.783C291.525 251.949 291.825 252.029 292.159 251.981C292.493 251.933 292.788 251.691 293.031 251.297L293.352 250.786L293.746 251.029L293.502 251.423C293.359 251.614 293.302 251.828 293.245 252.042C293.23 252.268 293.258 252.505 293.341 252.711C293.423 252.917 293.603 253.103 293.837 253.257C294.145 253.478 294.457 253.515 294.705 253.444C294.954 253.373 295.194 253.162 295.415 252.853C295.558 252.662 295.658 252.46 295.661 252.277C295.707 252.105 295.698 251.965 295.636 251.857L295.054 251.288L295.351 250.862L296.47 251.484C296.444 251.752 296.355 251.912 296.287 252.169Z" fill="#313131"/>
<path d="M291.875 258.011L292.378 257.503L292.729 257.735L292.068 258.66C291.936 258.808 291.836 259.011 291.67 259.288C291.516 259.522 291.427 259.682 291.35 259.799C290.909 260.415 290.483 260.806 290.083 260.928C289.683 261.051 289.286 260.99 288.946 260.715C288.638 260.495 288.396 260.201 288.316 259.812C288.225 259.466 288.274 259.112 288.42 258.738C288.123 259.163 287.774 259.437 287.374 259.56C286.985 259.639 286.588 259.579 286.249 259.304C285.792 258.952 285.541 258.518 285.496 258.001C285.451 257.483 285.677 256.81 286.238 256.088C286.37 255.939 286.459 255.779 286.59 255.631C286.865 255.291 287.019 255.057 287.074 255.026L287.735 254.101L288.086 254.333L287.742 254.93L291.875 258.011ZM286.504 256.296C286.152 256.753 286.037 257.181 286.042 257.504C286.048 257.827 286.279 258.164 286.63 258.396C286.969 258.671 287.312 258.763 287.603 258.703C287.895 258.643 288.189 258.401 288.475 258.018C288.827 257.562 289.005 257.242 289.082 257.125L287.041 255.66C286.987 255.691 286.79 255.914 286.504 256.296ZM289.233 257.762L288.947 258.145C288.726 258.453 288.646 258.753 288.706 259.044C288.765 259.336 288.965 259.619 289.273 259.839C289.581 260.059 289.881 260.14 290.161 260.123C290.41 260.052 290.693 259.852 290.99 259.427C291.122 259.278 291.222 259.076 291.311 258.916L291.4 258.756L289.519 257.38C289.496 257.465 289.376 257.571 289.233 257.762Z" fill="#313131"/>
<path d="M287.92 264.205L287.359 264.927L281.52 262.903L281.148 263.263L280.809 262.988L282.193 261.247L282.533 261.522L282.146 262.107L283.354 262.568L284.882 260.636L284.158 259.57L283.654 260.078L283.315 259.803L284.556 258.254L284.896 258.528L284.63 259.008L287.92 264.205ZM286.529 263.74L287.234 264.021L286.761 263.389L285.187 261.039L283.868 262.706L286.529 263.74Z" fill="#313131"/>
<path d="M280.099 264.267C280.596 264.125 281.101 264.122 281.615 264.26C282.129 264.398 282.64 264.718 283.128 265.125C283.616 265.531 283.953 265.988 284.138 266.497C284.323 267.006 284.368 267.523 284.273 268.048C284.178 268.574 283.912 269.053 283.572 269.467C283.297 269.807 282.882 270.155 282.413 270.534L282.185 270.702L281.095 269.63L281.478 269.227L282.437 269.76C282.534 269.74 282.686 269.689 282.86 269.552C283.023 269.458 283.209 269.278 283.364 269.044C283.615 268.79 283.75 268.459 283.756 268.093C283.805 267.739 283.714 267.393 283.495 267.013C283.275 266.633 283.013 266.241 282.556 265.89C282.142 265.549 281.76 265.263 281.343 265.105C280.926 264.948 280.529 264.887 280.152 264.924C279.775 264.961 279.449 265.149 279.175 265.488C278.977 265.711 278.834 265.902 278.788 266.074C278.699 266.233 278.708 266.373 278.673 266.502L279.058 267.294L278.644 267.642L277.885 266.704C277.951 266.63 278.039 266.47 278.151 266.224C278.251 266.021 278.34 265.862 278.429 265.702C278.518 265.542 278.661 265.351 278.858 265.128C279.144 264.746 279.601 264.409 280.099 264.267Z" fill="#313131"/>
<path d="M278.334 273.251C278.476 273.748 278.49 274.211 278.375 274.64C278.26 275.068 278.06 275.473 277.699 275.79C277.316 276.192 276.882 276.443 276.439 276.554C275.996 276.665 275.502 276.624 275.042 276.455C274.582 276.286 274.114 275.977 273.669 275.582C273.193 275.133 272.825 274.621 272.651 274.07C272.466 273.561 272.378 273.033 272.504 272.562C272.588 272.079 272.843 271.642 273.172 271.271C273.555 270.869 273.989 270.618 274.444 270.464C274.887 270.353 275.381 270.394 275.84 270.563C276.3 270.732 276.768 271.041 277.213 271.436L278.166 270.452L276.377 268.733L275.799 269.175L275.514 268.869L277.113 267.185L277.409 267.449L276.98 268.022L280.738 271.646L281.261 271.235L281.546 271.541L279.959 273.182L279.674 272.876L280.103 272.302L278.462 270.715L277.51 271.699C277.952 272.277 278.191 272.754 278.334 273.251ZM277.804 274.028C277.674 273.488 277.286 272.879 276.63 272.244C276.048 271.675 275.451 271.331 274.883 271.225C274.314 271.118 273.817 271.261 273.434 271.663C273.051 272.065 272.936 272.494 273.067 273.034C273.197 273.574 273.585 274.182 274.284 274.829C274.866 275.398 275.42 275.73 275.977 275.879C276.534 276.028 276.988 275.875 277.371 275.472C277.754 275.07 277.881 274.599 277.804 274.028Z" fill="#313131"/>
<path d="M270.099 278.115C269.744 278.066 269.273 277.939 268.716 277.79C268.331 277.687 268.031 277.607 267.817 277.549C267.646 277.503 267.506 277.512 267.397 277.574L267.083 277.72L266.797 277.414L267.541 276.695C267.65 276.632 267.801 276.581 268.101 276.661C268.358 276.73 268.743 276.833 269.257 276.971C269.803 277.163 270.231 277.278 270.585 277.327C270.885 277.407 271.122 277.379 271.254 277.23L271.625 276.871L269.988 275.101L269.368 275.531L269.082 275.225L270.787 273.662L271.072 273.968L270.611 274.487L274.172 278.334L274.738 277.934L275.023 278.24L273.373 279.772L273.088 279.466L273.517 278.893L271.879 277.123L271.333 277.619L271.735 280.573L272.301 280.174L272.587 280.48L271.057 281.906L270.771 281.6L271.189 281.069L270.853 278.041C270.776 278.158 270.453 278.164 270.099 278.115Z" fill="#313131"/>
<path d="M265.916 278.646C266.39 278.59 266.873 278.673 267.309 278.928C267.8 279.151 268.203 279.535 268.625 280.015C269.047 280.495 269.318 281.027 269.449 281.567C269.579 282.107 269.582 282.613 269.412 283.072C269.243 283.532 268.989 283.969 268.574 284.317C267.919 284.876 267.216 285.101 266.508 285.003C265.8 284.905 265.14 284.453 264.464 283.721C264.042 283.24 263.771 282.709 263.641 282.169C263.51 281.629 263.508 281.123 263.688 280.62C263.826 280.106 264.112 279.724 264.527 279.376C264.976 278.9 265.441 278.703 265.916 278.646ZM268.873 282.515C268.797 281.943 268.463 281.303 267.861 280.637C267.302 279.982 266.76 279.607 266.215 279.415C265.669 279.223 265.184 279.323 264.769 279.671C264.354 280.019 264.185 280.478 264.262 281.05C264.338 281.621 264.672 282.261 265.262 282.97C265.821 283.625 266.363 284 266.909 284.192C267.466 284.341 267.951 284.242 268.366 283.894C268.781 283.546 268.95 283.086 268.873 282.515Z" fill="#313131"/>
<path d="M264.956 286.515L265.553 286.17L265.827 286.519L264.955 287.203C264.792 287.297 264.606 287.477 264.409 287.7C264.223 287.879 264.048 288.016 263.94 288.079C263.308 288.552 262.83 288.792 262.411 288.817C261.991 288.842 261.628 288.653 261.354 288.304C261.112 288.01 260.978 287.653 260.984 287.287C260.99 286.922 261.125 286.59 261.388 286.294C260.973 286.642 260.562 286.807 260.153 286.789C259.745 286.772 259.382 286.583 259.109 286.234C258.772 285.776 258.63 285.279 258.725 284.754C258.82 284.228 259.249 283.654 259.947 283.107C260.121 282.97 260.284 282.876 260.404 282.77C260.753 282.497 260.97 282.371 261.036 282.297L261.908 281.612L262.139 281.95L261.635 282.458L264.956 286.515ZM260.275 283.424C259.817 283.761 259.585 284.112 259.536 284.466C259.487 284.82 259.578 285.166 259.852 285.515C260.126 285.864 260.403 286.03 260.714 286.067C261.026 286.105 261.34 285.959 261.743 285.654C262.2 285.318 262.495 285.075 262.572 284.958L261.035 282.985C260.864 282.939 260.635 283.108 260.275 283.424ZM262.497 285.581L262.148 285.855C261.854 286.097 261.688 286.374 261.65 286.685C261.613 286.997 261.715 287.299 262.001 287.605C262.243 287.9 262.52 288.066 262.788 288.092C263.057 288.118 263.371 287.973 263.774 287.668C263.949 287.531 264.08 287.382 264.255 287.245L264.375 287.14L262.943 285.287C262.792 285.338 262.672 285.444 262.497 285.581Z" fill="#313131"/>
<g style="mix-blend-mode:overlay">
<circle cx="78.0601" cy="75.5852" r="0.901438" fill="#313131"/>
</g>
<g style="mix-blend-mode:overlay">
<circle cx="260.375" cy="64.0335" r="0.901438" fill="#313131"/>
</g>
</g>
</svg>
